<svg xmlns="http://www.w3.org/2000/svg" viewBox="0 0 1412.25 204.16"><defs><style>.cls-1{fill:#303030}</style></defs><g id="Capa_2" data-name="Capa 2"><g id="Capa_1-2" data-name="Capa 1"><path class="cls-1" d="M258.38 68.61v29.31h-25.11V17.27h34.44q12.89 0 19.59 2.95a23.84 23.84 0 0110.63 9 24.64 24.64 0 013.93 13.65q0 11.52-8 18.61t-21.45 7.09zM258 51.3h8.28q10.92 0 10.93-8 0-7.58-10.11-7.57H258zM350.35 97.92L345.79 82h-21.6l-4.84 15.9h-20.1l24.9-80.65h26.17l25.29 80.65zm-22-33.5h13L334.92 41zM450.16 52.72v45.2h-12.11a48.48 48.48 0 00-3.25-8.45q-7.5 9.69-22.22 9.69-15.6 0-25.64-10.9t-10-29.51q0-18.09 9.72-30.4T415.54 16q14.41 0 23.22 7.33t11.4 20.79l-24 2.37q-1.77-12.58-11.05-12.59Q403 33.93 403 57.09q0 14 3.9 18.46a12.11 12.11 0 009.41 4.45 11.36 11.36 0 007.69-2.7 9.51 9.51 0 003.22-7.45h-13.4V52.72zM488 17.27v80.65h-24.78V17.27zM571 97.92h-20.17l-22.08-35.64a135.12 135.12 0 01-8.58-16.65 56.12 56.12 0 012 13.23v39.06H502V17.27h23.4l18.79 29.54a114.55 114.55 0 018.51 15.48 116.44 116.44 0 01-1.9-21.15V17.27H571zM629.51 97.92L625 82h-21.6l-4.84 15.9h-20.1l24.9-80.65h26.17l25.29 80.65zm-22-33.5h13.05L614.08 41zM753.13 78.66v19.26h-60.68V17.27h60.68v18.61h-36.39v11.7h29.42v17.9h-29.42v13.18zM831.89 97.92h-20.15l-22.09-35.64a136.58 136.58 0 01-8.57-16.65A56.12 56.12 0 01783 58.86v39.06h-20.06V17.27h23.4l18.79 29.54a114.36 114.36 0 018.5 15.48 117.34 117.34 0 01-1.89-21.15V17.27h20.15zM901 17.27v80.65h-24.8V17.27zM984 97.92h-20.18l-22.09-35.64a138 138 0 01-8.58-16.65 56.12 56.12 0 012 13.23v39.06H915V17.27h23.39l18.81 29.54a113.45 113.45 0 018.51 15.48 117.34 117.34 0 01-1.89-21.15V17.27H984zM1031.17 36.59v61.33h-23.45V36.59H991V17.27h56.89v19.32zM1115.6 78.66v19.26h-60.68V17.27h60.68v18.61h-36.4v11.7h29.43v17.9h-29.43v13.18zM1197.19 97.92h-27.44L1158 67.08h-7.81v30.84h-24.75V17.27h42.12q14 0 21.66 6.53t7.68 17.2a25.89 25.89 0 01-2.84 12.32q-2.83 5.34-11.46 9.42zm-47-48.1h10.58a13 13 0 007.5-2 6.51 6.51 0 002.84-5.73q0-7.74-9.51-7.74h-11.41zM1277.84 97.92h-20.15l-22.09-35.64a136.58 136.58 0 01-8.6-16.65 56.12 56.12 0 012 13.23v39.06h-20.09V17.27h23.4l18.79 29.54a114.36 114.36 0 018.5 15.48 117.34 117.34 0 01-1.89-21.15V17.27h20.15zM1352.58 78.66v19.26h-60.68V17.27h60.68v18.61h-36.4v11.7h29.43v17.9h-29.43v13.18zM1395.53 36.59v61.33h-23.46V36.59h-16.72V17.27h56.9v19.32zM243 164.54v10.69h-11.1v-10.69zM271.22 160l11.22.67q-.79 7.35-5.43 11.28a17.07 17.07 0 01-11.41 3.93q-8.14 0-13.16-5.4t-5-14.88q0-9.4 4.75-15.17t13.24-5.78q7.93 0 12.2 4.4a18.14 18.14 0 014.82 11.66l-11.45.61c0-2.67-.52-4.6-1.54-5.8a4.65 4.65 0 00-3.62-1.78q-5.81 0-5.8 11.66 0 6.52 1.51 8.87a4.74 4.74 0 004.23 2.35q4.85-.03 5.44-6.62zM304.21 175.85a18.14 18.14 0 01-13.76-5.6q-5.31-5.59-5.31-15 0-9 5.08-14.81t14.11-5.85a18 18 0 0113.6 5.51q5.26 5.52 5.26 14.71 0 9.53-5.3 15.26a17.78 17.78 0 01-13.68 5.78zm-.06-9.09a4.64 4.64 0 004.47-2.71c.91-1.8 1.36-5.11 1.36-9.91q0-10.44-5.6-10.43-6 0-6 11.89-.03 11.16 5.77 11.16zM371.86 135.24v40h-11.4v-28.6l-7.4 28.59h-7.79l-7.69-28.59v28.59h-9.2v-40h16l5.8 21.24 5.54-21.24z"/><path fill="#682e95" d="M0 138L7.09 37.09 102.55 0l35.99 27.82-94.63 36.27-7.09 101.45L0 138z"/><path fill="#ce168d" d="M186.21 66.16l-7.09 100.91-95.45 37.09-36-27.82 94.64-36.27 7.09-101.45 36.81 27.54z"/></g></g></svg>