<svg xmlns="http://www.w3.org/2000/svg" viewBox="0 0 563.43 563.43"><defs><style>.cls-1{fill:#f5f5f5}.cls-2{fill:#e6e6e6}.cls-3{fill:#ba68c8}.cls-4{opacity:.1}.cls-5{opacity:.4}.cls-6,.cls-8{opacity:.3}.cls-7{fill:#ffa8a7}.cls-14,.cls-24,.cls-8{fill:#fff}.cls-24,.cls-9{opacity:.2}.cls-10{fill:#455a64}.cls-18,.cls-26{opacity:.5}.cls-16{isolation:isolate}.cls-17{fill:#e0e0e0}.cls-21{fill:#37474f}.cls-23{fill:none}.cls-25{fill:#263238}.cls-27{fill:#f28f8f}.cls-28{fill:#995c5c}.cls-29{fill:#ebebeb}</style></defs><g id="Capa_2" data-name="Capa 2"><g id="Character_1" data-name="Character 1"><path class="cls-1" d="M414.86 288.71c-74-42.73-193.63-42.73-267.16 0s-73.15 112 .86 154.76 193.64 42.73 267.18 0 73.14-112.02-.88-154.76z"/><path class="cls-2" d="M265.22 407c-16.19-9.34-42.34-9.34-58.41 0s-16 24.49.19 33.83 42.33 9.35 58.41 0 15.99-24.52-.19-33.83zM429.08 352.52c-17.22-9.94-45.05-9.94-62.16 0-15.12 8.79-16.8 22.39-5.11 32.3-9.43-.58-19.21 1.21-26.41 5.4-12.65 7.35-12.58 19.26.15 26.61s33.29 7.35 45.93 0c10.06-5.85 12.07-14.58 6.06-21.61 14.5 2.1 30.45-.13 41.74-6.69 17.11-9.94 17.02-26.07-.2-36.01zM336.78 291.52l-12.43-7.17a12.55 12.55 0 00-12.56 0l-69 40-6.08-3.51L186.82 350l5.76 3.32-81.64 47.13a4.19 4.19 0 000 7.26l12.57 7.29a12.55 12.55 0 0012.57 0l81.59-47.19 9.53 5.49a25.13 25.13 0 0025.12 0l29.33-16.93a5.59 5.59 0 000-9.68l-13.75-7.91 11.57-6.78 4-2.33 53.31-30.94a4.18 4.18 0 000-7.21z"/><path class="cls-3" d="M271.48 348.74l-23.91 13.68a22.67 22.67 0 01-22.58 0l-17.74-10.23a6.79 6.79 0 01-3.4-5.88v-12.1l-3.7 2.14v10.52a7.93 7.93 0 004 6.87l21.07 12.14a22.33 22.33 0 0022.23 0l24.08-13.79a9 9 0 004.39-9.55 8.9 8.9 0 01-4.44 6.2z"/><path class="cls-4" d="M271.48 348.74l-23.91 13.68a22.67 22.67 0 01-22.58 0l-17.74-10.23a6.79 6.79 0 01-3.4-5.88v-12.1l-3.7 2.14v10.52a7.93 7.93 0 004 6.87l21.07 12.14a22.33 22.33 0 0022.23 0l24.08-13.79a9 9 0 004.39-9.55 8.9 8.9 0 01-4.44 6.2z"/><path class="cls-3" d="M207.25 352.16L225 362.39a22.67 22.67 0 0022.58 0l23.91-13.68a6.53 6.53 0 00.16-12.28L252 324.69a7.93 7.93 0 01-3.86-6.8v-9.35l-44.34 25.64v12.1a6.79 6.79 0 003.45 5.88z"/><path class="cls-5" d="M207.25 352.16a6.79 6.79 0 01-3.4-5.88v-12.1l-3.7 2.14v10.52a7.93 7.93 0 004 6.87l7.48 4.31v-3.37z"/><path class="cls-6" d="M207.25 352.16l4.33 2.49 46.29-26.45-5.87-3.51a7.93 7.93 0 01-3.86-6.8v-9.35l-44.34 25.64v12.1a6.79 6.79 0 003.45 5.88z"/><path class="cls-7" d="M128.88 382.29z"/><path class="cls-3" d="M126.77 377.87l-.34-151.65a14.94 14.94 0 016.77-11.72L321.7 106c1.87-1.08 3.56-1.19 4.79-.5l-7.1-4.11c-1.24-.79-3-.73-4.93.39L126 210.3a14.9 14.9 0 00-6.81 11.7l.34 151.65a4.85 4.85 0 001.8 4.23 2.08 2.08 0 00.38.22l7 4.08c-1.19-.7-1.93-2.18-1.94-4.31z"/><path class="cls-8" d="M319.39 101.34c-1.24-.79-3-.73-4.93.39L126 210.3a14.2 14.2 0 00-5.18 5.78l7.25 4.19a14.24 14.24 0 015.18-5.77L321.7 106c1.87-1.08 3.56-1.19 4.79-.5z"/><path class="cls-9" d="M119.19 222l.34 151.65a4.85 4.85 0 001.8 4.23 2.08 2.08 0 00.38.22l7 4.08c-1.2-.72-1.94-2.21-2-4.33l-.34-151.65a13.42 13.42 0 011.59-5.95l-7.25-4.19a13.27 13.27 0 00-1.52 5.94z"/><path class="cls-7" d="M326.57 105.5z"/><path class="cls-3" d="M328.51 109.83c0-2.12-.75-3.61-1.95-4.33-1.23-.69-2.92-.58-4.79.5L133.2 214.5a14.94 14.94 0 00-6.77 11.72l.34 151.65c0 2.12.75 3.61 2 4.33l.11.06c1.22.64 2.88.52 4.7-.54L322.09 273.2a14.92 14.92 0 006.76-11.72zm-9.77 157.57L133.46 374.09l-.33-147.89a8.45 8.45 0 013.42-5.9l185.28-106.69.33 147.89a8.47 8.47 0 01-3.42 5.9z"/><path class="cls-3" d="M321.83 113.61l-4.8 2.77.32 142.78a8.47 8.47 0 01-3.42 5.9L133.45 369v5.11L318.74 267.4a8.47 8.47 0 003.42-5.9z"/><path class="cls-6" d="M321.83 113.61l-4.8 2.77.32 142.78a8.47 8.47 0 01-3.42 5.9L133.45 369v5.11L318.74 267.4a8.47 8.47 0 003.42-5.9z"/><path class="cls-10" d="M317.35 259.16L317 116.38 136.55 220.3a8.45 8.45 0 00-3.42 5.9l.32 142.8 180.48-103.94a8.47 8.47 0 003.42-5.9z"/><path class="cls-3" d="M155.34 385.54L155 242.2a14.1 14.1 0 016.4-11.08l178.17-102.6c1.76-1 3.36-1.12 4.52-.47l-6.71-3.89c-1.17-.74-2.83-.68-4.66.38L154.56 227.15a14.09 14.09 0 00-6.39 11.08l.32 143.33a4.59 4.59 0 001.7 4l.36.2 6.62 3.86c-1.17-.62-1.83-2.08-1.83-4.08z"/><path d="M337.39 124.16c-1.17-.74-2.83-.68-4.66.38L154.56 227.15a13.46 13.46 0 00-4.9 5.46l6.86 4a13.41 13.41 0 014.89-5.45l178.17-102.6c1.76-1 3.36-1.12 4.52-.47z" fill="#fff" opacity=".4"/><path class="cls-8" d="M148.17 238.23l.32 143.33a4.59 4.59 0 001.7 4l.36.2 6.62 3.86c-1.14-.68-1.84-2.09-1.84-4.09L155 242.2a12.7 12.7 0 011.51-5.63l-6.86-4a12.5 12.5 0 00-1.48 5.66z"/><path class="cls-3" d="M155 250.51l.31 135c0 2 .7 3.41 1.84 4.09l.1.06c1.16.61 2.73.49 4.45-.51L339.94 286.6a14.11 14.11 0 006.4-11.08L346 140.27z"/><path d="M155 250.51l.31 135c0 2 .7 3.41 1.84 4.09l.1.06c1.16.61 2.73.49 4.45-.51L339.94 286.6a14.11 14.11 0 006.4-11.08L346 140.27z" opacity=".5" fill="#fff"/><path class="cls-3" d="M338.64 149.26c1.65-.95 3-.19 3 1.71a6.6 6.6 0 01-3 5.17l-152.71 88.29c-1.65.95-3 .19-3-1.71a6.59 6.59 0 013-5.17z"/><path class="cls-14" d="M338.64 149.26c1.65-.95 3-.19 3 1.71a6.6 6.6 0 01-3 5.17l-152.71 88.29c-1.65.95-3 .19-3-1.71a6.59 6.59 0 013-5.17z" opacity=".8"/><path class="cls-3" d="M163.48 252.05a.21.21 0 01.2 0c.13.05.14.27 0 .47l-1 1.78 3.32-1.9c.17-.1.31 0 .31.17a.69.69 0 01-.3.52l-3.27 1.91 1 .65c.12.08.11.3 0 .5a.45.45 0 01-.2.21.2.2 0 01-.22 0l-1.44-1a.18.18 0 01-.05-.07.27.27 0 010-.12.5.5 0 010-.12 1.16 1.16 0 01.06-.15l1.43-2.63a.65.65 0 01.16-.22zM171.7 247.3a.24.24 0 01.23 0l1.43 1a.21.21 0 01.06.08.43.43 0 010 .11.51.51 0 010 .13.46.46 0 010 .14l-1.43 2.63a.58.58 0 01-.22.24.21.21 0 01-.21 0c-.12-.06-.13-.27 0-.48l1-1.77-3.26 1.88c-.16.09-.3 0-.3-.17a.63.63 0 01.3-.52l3.26-1.88-1-.66c-.11-.08-.1-.3 0-.5a.81.81 0 01.14-.23zM177.72 243.83a1.51 1.51 0 011-.24.65.65 0 01.3-.47c.17-.09.29 0 .29.19v.77a.66.66 0 01-.28.5l-.66.41c-.16.09-.3 0-.3-.16a.67.67 0 01.22-.48 1.25 1.25 0 00-.54.17 2.8 2.8 0 00-1.26 2.18c0 .8.57 1.12 1.27.72a2.78 2.78 0 001.11-1.4.59.59 0 01.26-.33.27.27 0 01.14 0c.15 0 .21.18.13.4a4 4 0 01-1.64 2.06c-1 .59-1.86.11-1.87-1.06a4.11 4.11 0 011.83-3.26z"/><g opacity=".7"><path class="cls-14" d="M163.48 252.05a.21.21 0 01.2 0c.13.05.14.27 0 .47l-1 1.78 3.32-1.9c.17-.1.31 0 .31.17a.69.69 0 01-.3.52l-3.27 1.91 1 .65c.12.08.11.3 0 .5a.45.45 0 01-.2.21.2.2 0 01-.22 0l-1.44-1a.18.18 0 01-.05-.07.27.27 0 010-.12.5.5 0 010-.12 1.16 1.16 0 01.06-.15l1.43-2.63a.65.65 0 01.16-.22zM171.7 247.3a.24.24 0 01.23 0l1.43 1a.21.21 0 01.06.08.43.43 0 010 .11.51.51 0 010 .13.46.46 0 010 .14l-1.43 2.63a.58.58 0 01-.22.24.21.21 0 01-.21 0c-.12-.06-.13-.27 0-.48l1-1.77-3.26 1.88c-.16.09-.3 0-.3-.17a.63.63 0 01.3-.52l3.26-1.88-1-.66c-.11-.08-.1-.3 0-.5a.81.81 0 01.14-.23zM177.72 243.83a1.51 1.51 0 011-.24.65.65 0 01.3-.47c.17-.09.29 0 .29.19v.77a.66.66 0 01-.28.5l-.66.41c-.16.09-.3 0-.3-.16a.67.67 0 01.22-.48 1.25 1.25 0 00-.54.17 2.8 2.8 0 00-1.26 2.18c0 .8.57 1.12 1.27.72a2.78 2.78 0 001.11-1.4.59.59 0 01.26-.33.27.27 0 01.14 0c.15 0 .21.18.13.4a4 4 0 01-1.64 2.06c-1 .59-1.86.11-1.87-1.06a4.11 4.11 0 011.83-3.26z"/></g><path class="cls-3" d="M231.59 320.4l105.5-60.87a1.84 1.84 0 012.75 1.59v13.24a4.59 4.59 0 01-2.29 4L232 339.28a1.83 1.83 0 01-2.75-1.59v-13.32a4.6 4.6 0 012.34-3.97zM337.87 180.45v-13.3a1.83 1.83 0 00-2.75-1.58L231.59 225a4.58 4.58 0 00-2.3 4v13.68a1.84 1.84 0 002.75 1.59l103.53-59.78a4.58 4.58 0 002.3-4.04z"/><path class="cls-14" d="M302.19 197.84v2.08l-66.87 38.61-.01-2.07 66.88-38.62zM302.18 194.01v2.07l-66.87 38.61-.01-2.06 66.88-38.62zM272.88 206.62v2.08l-37.59 21.7v-2.07l37.59-21.71z"/><path class="cls-3" d="M328.49 178.59l.01 2.07-11.9 6.87-.01-2.07 11.9-6.87z"/><path class="cls-14" d="M329.08 174.18c2.44-1.42 4.44-.28 4.45 2.54a9.74 9.74 0 01-4.43 7.66l-13.1 7.56c-2.46 1.41-4.45.28-4.46-2.54a9.8 9.8 0 014.43-7.67zm-.58 6.48v-2.07l-11.9 6.87v2.07l11.9-6.87"/><path class="cls-3" d="M290.91 279.71l45.26-26.13a7.34 7.34 0 003.67-6.36v-53.7a2.76 2.76 0 00-4.13-2.39l-45.26 26.14a7.33 7.33 0 00-3.67 6.35v53.71a2.75 2.75 0 004.13 2.38z"/><g class="cls-16"><path class="cls-14" d="M321.39 228.37l8.66 6.82.02 6.67-28.82 16.64-.02-6.67 5.5-10.91 4.93 3.83-1.75 5.42 2.53-4.81 8.95-16.99z"/><path class="cls-14" d="M311.92 231.73c1.36-.78 2.46-.16 2.47 1.4a5.42 5.42 0 01-2.45 4.24c-1.36.79-2.46.16-2.47-1.4a5.39 5.39 0 012.45-4.24z"/></g><path class="cls-14" d="M310.19 227.88l1.5-.87a.21.21 0 00-.21-.37l-1.51.87a.21.21 0 00-.08.29.21.21 0 00.19.11.23.23 0 00.11-.03zM302.66 232.2l1.5-.87a.21.21 0 10-.16-.33l-1.51.87a.21.21 0 00-.08.29.22.22 0 00.3.08zM295.13 236.52l1.5-.87a.2.2 0 00.08-.29.21.21 0 00-.29-.08l-1.51.87a.22.22 0 00-.08.29.22.22 0 00.3.08zM298.89 234.36l1.51-.87a.21.21 0 00.08-.29.22.22 0 00-.3-.08l-1.5.87a.21.21 0 00-.08.29.21.21 0 00.18.11.2.2 0 00.11-.03zM306.42 230l1.51-.87a.22.22 0 00.08-.29.23.23 0 00-.3-.08l-1.5.87a.21.21 0 00.1.4.2.2 0 00.11-.03zM329 217.07l1.5-.86a.21.21 0 10-.21-.37l-1.5.86a.21.21 0 00-.08.3.22.22 0 00.18.1.2.2 0 00.11-.03zM317.71 223.56l1.51-.87a.21.21 0 00-.21-.37l-1.51.86a.22.22 0 00-.08.3.21.21 0 00.19.1.18.18 0 00.1-.02zM325.24 219.23l1.51-.86a.21.21 0 00-.21-.37l-1.51.86a.22.22 0 00-.08.3.23.23 0 00.19.1.19.19 0 00.1-.03zM332.67 214.94a.19.19 0 00.1 0l1.51-.86a.21.21 0 00.08-.29.21.21 0 00-.29-.08l-1.51.86a.22.22 0 00-.08.3.23.23 0 00.19.07zM321.48 221.4l1.51-.87a.22.22 0 00-.22-.37l-1.5.86a.21.21 0 00-.08.3.2.2 0 00.18.1zM337.39 224a.21.21 0 00-.22-.21.21.21 0 00-.21.21v1.69a.22.22 0 10.43 0zM337.39 219.77a.22.22 0 00-.43 0v1.7a.21.21 0 00.21.21.21.21 0 00.22-.21zM337.39 228.24a.22.22 0 00-.43 0v1.7a.21.21 0 00.21.21.21.21 0 00.22-.21zM337.39 232.48a.21.21 0 00-.22-.21.21.21 0 00-.21.21v1.69a.22.22 0 10.43 0zM337.39 236.71a.22.22 0 00-.43 0v1.7a.21.21 0 00.21.21.21.21 0 00.22-.21zM337.17 240.73a.22.22 0 00-.21.22v1.69a.22.22 0 10.43 0V241a.22.22 0 00-.22-.27zM337.39 215.54a.21.21 0 00-.22-.21.21.21 0 00-.21.21v1.69a.22.22 0 10.43 0zM319.07 256.23l-1.5.87a.21.21 0 00-.08.29.21.21 0 00.18.11.2.2 0 00.11 0l1.5-.86a.22.22 0 00-.21-.38zM296.55 269.22l-1.5.86a.22.22 0 00.11.4.23.23 0 00.11 0l1.5-.86a.22.22 0 00.08-.3.22.22 0 00-.3-.1zM300.31 267.05l-1.5.87a.21.21 0 00-.08.29.21.21 0 00.18.11.2.2 0 00.11 0l1.5-.87a.21.21 0 00.08-.29.21.21 0 00-.29-.11zM330.32 249.74l-1.5.87a.21.21 0 00.11.4.23.23 0 00.11 0l1.5-.86a.22.22 0 00-.22-.38zM307.81 262.73l-1.5.86a.21.21 0 00.11.4.19.19 0 00.1 0l1.5-.86a.21.21 0 00.08-.3.21.21 0 00-.29-.1zM326.57 251.91l-1.5.86a.22.22 0 00-.08.3.23.23 0 00.19.1.19.19 0 00.1 0l1.5-.86a.21.21 0 00-.21-.37zM311.56 260.56l-1.5.87a.21.21 0 00.11.4.23.23 0 00.11 0l1.5-.87a.22.22 0 00.08-.29.23.23 0 00-.3-.11zM334.07 247.58l-1.5.87a.22.22 0 00-.08.29.22.22 0 00.3.08l1.5-.87a.21.21 0 00.08-.29.22.22 0 00-.3-.08zM322.82 254.07l-1.5.87a.21.21 0 00-.08.29.21.21 0 00.18.11.2.2 0 00.11 0l1.5-.87a.21.21 0 00-.21-.37zM304.06 264.89l-1.5.87a.21.21 0 00.1.4.2.2 0 00.11 0l1.5-.87a.21.21 0 00.08-.29.21.21 0 00-.29-.11zM292.09 254a.21.21 0 00-.21.22v1.69a.22.22 0 00.22.22.21.21 0 00.21-.22v-1.69a.21.21 0 00-.22-.22zM292.11 258.2a.22.22 0 00-.22.22v1.69a.22.22 0 00.22.22.22.22 0 00.21-.22v-1.69a.21.21 0 00-.21-.22zM292 241.24a.21.21 0 00-.21.22v1.69a.21.21 0 00.21.22.21.21 0 00.21-.22v-1.7a.22.22 0 00-.21-.21zM292.14 266.68a.22.22 0 00-.21.22v1.69a.22.22 0 00.21.22.22.22 0 00.22-.22v-1.69a.22.22 0 00-.21-.22zM292.05 245.48a.21.21 0 00-.21.22v1.69a.21.21 0 00.21.22.21.21 0 00.21-.22v-1.7a.22.22 0 00-.21-.21zM292.07 249.72a.21.21 0 00-.21.22v1.69a.22.22 0 00.22.22.21.21 0 00.21-.22v-1.69a.21.21 0 00-.22-.22zM292.13 262.44a.22.22 0 00-.22.22v1.69a.22.22 0 00.21.22.22.22 0 00.22-.22v-1.69a.22.22 0 00-.21-.22zM294.15 236a.22.22 0 00-.22 0l-2.49 1.44a.23.23 0 00-.1.19v2.86a.22.22 0 00.1.18.22.22 0 00.22 0l2.49-1.44a.21.21 0 00.1-.18v-2.86a.24.24 0 00-.1-.19zm-.32.56v2.36l-2.07 1.2v-2.37zM315.94 223.33a.2.2 0 00-.21 0l-2.49 1.43a.21.21 0 00-.11.19v2.86a.21.21 0 00.11.19.18.18 0 00.1 0 .2.2 0 00.11 0l2.49-1.44a.21.21 0 00.11-.19v-2.86a.19.19 0 00-.11-.18zm-.32.55v2.37l-2.06 1.19v-2.37zM334.79 216a.2.2 0 00.11 0h.11l2.49-1.44a.23.23 0 00.1-.19v-2.86a.21.21 0 00-.1-.18.22.22 0 00-.22 0l-2.49 1.43a.23.23 0 00-.1.19v2.86a.21.21 0 00.1.19zm2.38-4.12v2.37l-2.06 1.19v-2.37zM294.15 269a.22.22 0 00-.22 0l-2.49 1.44a.22.22 0 00-.1.18v2.87a.22.22 0 00.1.18.22.22 0 00.22 0l2.49-1.44a.22.22 0 00.1-.18v-2.87a.23.23 0 00-.1-.18zm-.32.56v2.36l-2.07 1.19v-2.36zM315.94 256.34a.26.26 0 00-.21 0l-2.49 1.44a.21.21 0 00-.11.19v2.86a.19.19 0 00.11.18.19.19 0 00.1 0 .2.2 0 00.11 0l2.49-1.43a.21.21 0 00.11-.19v-2.86a.21.21 0 00-.11-.19zm-.32.56v2.37l-2.06 1.19v-2.37zM337.49 244.38a.28.28 0 00-.22 0l-2.49 1.44a.23.23 0 00-.1.19v2.86a.21.21 0 00.11.19h.22l2.49-1.43a.23.23 0 00.1-.19v-2.86a.23.23 0 00-.11-.2zm-.32.56v2.37l-2.06 1.19v-2.37zM336.14 205.06l.01 2.08-44.61 25.57-.01-2.08 44.61-25.57zM336.13 201.23l.01 2.07-44.61 25.57-.01-2.06 44.61-25.58zM309.18 212.28v2.07l-17.67 10.23v-2.08l17.67-10.22z"/><path class="cls-3" d="M221.8 230.58l-55.71 32a5.52 5.52 0 00-2.76 4.79l.18 80a1.83 1.83 0 002.75 1.58l55.53-32a5.51 5.51 0 002.75-4.77v-80a1.83 1.83 0 00-2.74-1.6z"/><g class="cls-16"><path class="cls-14" d="M201.21 257.48l9.28 7.3.02 7.14-30.87 17.83-.02-7.14 5.88-11.69 5.29 4.1-1.87 5.81 2.71-5.16 9.58-18.19z"/><path class="cls-14" d="M191.07 261.07c1.45-.84 2.64-.16 2.64 1.51a5.77 5.77 0 01-2.62 4.54c-1.45.84-2.64.17-2.64-1.5a5.79 5.79 0 012.62-4.55z"/></g><path class="cls-14" d="M189.21 257l1.62-.93a.23.23 0 00.08-.31.23.23 0 00-.31-.09l-1.62.93a.23.23 0 00-.08.31.22.22 0 00.2.12.2.2 0 00.11-.03zM181.15 261.57l1.61-.92a.22.22 0 00.08-.31.23.23 0 00-.31-.09l-1.61.93a.23.23 0 00-.09.31.25.25 0 00.2.12.19.19 0 00.12-.04zM173.08 266.2l1.61-.92a.24.24 0 00.09-.32.23.23 0 00-.31-.08l-1.62.93a.23.23 0 00-.08.31.23.23 0 00.2.11.2.2 0 00.11-.03zM177.11 263.89l1.62-.93a.23.23 0 00-.23-.39l-1.61.92a.23.23 0 00-.09.31.22.22 0 00.2.12.2.2 0 00.11-.03zM185.18 259.26l1.61-.92a.24.24 0 00.09-.32.23.23 0 00-.32-.08l-1.61.92a.23.23 0 00.12.43zM209.38 245.38l1.61-.93a.22.22 0 00.08-.31.23.23 0 00-.31-.09l-1.61.93a.23.23 0 00.11.43.27.27 0 00.12-.03zM197.28 252.32l1.61-.93a.23.23 0 00.09-.31.24.24 0 00-.32-.09l-1.61.93a.23.23 0 00.11.43.27.27 0 00.12-.03zM205.34 247.69l1.62-.93a.23.23 0 00.08-.31.22.22 0 00-.31-.08l-1.62.92a.24.24 0 00-.08.32.23.23 0 00.2.11.2.2 0 00.11-.03zM213.29 243.09a.27.27 0 00.12 0l1.61-.92a.24.24 0 00.09-.32.23.23 0 00-.32-.08l-1.61.92a.23.23 0 00-.08.32.23.23 0 00.19.08zM201.31 250l1.61-.92a.23.23 0 00.09-.31.22.22 0 00-.31-.09l-1.62.93a.22.22 0 00-.08.31.23.23 0 00.2.11.23.23 0 00.11-.03zM218.35 252.8a.22.22 0 00-.23-.22.23.23 0 00-.23.22v1.82a.23.23 0 00.23.23.23.23 0 00.23-.23zM218.35 248.27a.23.23 0 00-.23-.23.23.23 0 00-.23.23v1.81a.23.23 0 00.23.23.23.23 0 00.23-.23zM218.35 257.34a.23.23 0 00-.23-.23.23.23 0 00-.23.23v1.81a.23.23 0 00.23.23.23.23 0 00.23-.23zM218.35 261.88a.23.23 0 00-.23-.23.23.23 0 00-.23.23v1.81a.23.23 0 00.23.23.23.23 0 00.23-.23zM218.35 266.41a.23.23 0 00-.23-.23.24.24 0 00-.23.23v1.82a.24.24 0 00.23.23.23.23 0 00.23-.23zM218.12 270.72a.23.23 0 00-.23.23v1.81a.23.23 0 00.23.23.23.23 0 00.23-.23V271a.23.23 0 00-.23-.28zM218.35 243.73a.23.23 0 00-.23-.23.23.23 0 00-.23.23v1.82a.24.24 0 00.23.23.23.23 0 00.23-.23zM198.73 287.32l-1.61.93a.23.23 0 00.11.43.27.27 0 00.12 0l1.6-.93a.23.23 0 00.09-.31.23.23 0 00-.31-.12zM174.61 301.23l-1.61.93a.23.23 0 00-.08.31.24.24 0 00.2.12.15.15 0 00.11 0l1.61-.92a.23.23 0 00.08-.32.23.23 0 00-.31-.12zM178.63 298.91l-1.61.93a.23.23 0 00-.08.31.22.22 0 00.2.12.2.2 0 00.11 0l1.61-.93a.22.22 0 00.08-.31.23.23 0 00-.31-.12zM210.78 280.37l-1.6.93a.23.23 0 00-.09.31.22.22 0 00.2.12.2.2 0 00.11 0l1.61-.93a.23.23 0 00.09-.31.24.24 0 00-.32-.12zM186.67 294.28l-1.61.92a.23.23 0 00.12.43h.11l1.61-.93a.23.23 0 00.08-.31.22.22 0 00-.31-.11zM206.76 282.69l-1.6.93a.22.22 0 00.11.42h.12l1.6-.92a.24.24 0 00.09-.32.24.24 0 00-.32-.11zM190.69 292l-1.61.93a.22.22 0 00-.08.31.21.21 0 00.19.11.27.27 0 00.12 0l1.61-.92a.24.24 0 00.08-.43.23.23 0 00-.31 0zM214.8 278.05l-1.61.93a.23.23 0 00-.08.31.22.22 0 00.2.12.2.2 0 00.11 0l1.61-.93a.23.23 0 00.09-.31.24.24 0 00-.32-.12zM202.74 285l-1.6.92a.23.23 0 00.11.43.27.27 0 00.12 0l1.6-.93a.23.23 0 10-.23-.39zM182.65 296.59l-1.61.93a.23.23 0 00.12.43.23.23 0 00.11 0l1.61-.93a.22.22 0 00.08-.31.23.23 0 00-.31-.12zM169.83 284.89a.23.23 0 00-.23.23v1.82a.22.22 0 00.23.22.23.23 0 00.23-.23v-1.81a.23.23 0 00-.23-.23zM169.85 289.43a.23.23 0 00-.23.23v1.82a.23.23 0 00.23.23.22.22 0 00.22-.23v-1.82a.23.23 0 00-.22-.23zM169.77 271.26a.23.23 0 00-.23.23v1.82a.23.23 0 00.23.23.22.22 0 00.22-.23v-1.82a.24.24 0 00-.22-.23zM169.89 298.52a.23.23 0 00-.23.23v1.81a.23.23 0 00.23.23.23.23 0 00.23-.23v-1.82a.23.23 0 00-.23-.22zM169.79 275.81a.23.23 0 00-.23.23v1.81a.23.23 0 00.23.23.22.22 0 00.22-.23V276a.23.23 0 00-.22-.19zM169.81 280.35a.23.23 0 00-.23.23v1.81a.23.23 0 00.23.23.22.22 0 00.22-.23v-1.81a.23.23 0 00-.22-.23zM169.87 294a.23.23 0 00-.23.23V296a.23.23 0 00.23.23.23.23 0 00.23-.23v-1.8a.24.24 0 00-.23-.2zM172 265.61a.24.24 0 00-.23 0l-2.66 1.54a.23.23 0 00-.12.2v3.06a.22.22 0 00.12.2.22.22 0 00.22 0l2.67-1.54a.24.24 0 00.12-.2v-3.06a.23.23 0 00-.12-.2zm-.34.59v2.54l-2.17 1.26v-2.53zM195.38 252.07a.24.24 0 00-.23 0l-2.67 1.54a.23.23 0 00-.11.2v3.07a.21.21 0 00.11.19.19.19 0 00.12 0 .15.15 0 00.11 0l2.67-1.54a.21.21 0 00.11-.19v-3.07a.27.27 0 00-.11-.2zm-.34.6v2.53l-2.2 1.28v-2.54zM215.57 244.26a.25.25 0 00.11 0 .28.28 0 00.12 0l2.67-1.54a.21.21 0 00.11-.19v-3.07a.23.23 0 00-.11-.2.24.24 0 00-.23 0l-2.67 1.54a.23.23 0 00-.11.2v3.07a.25.25 0 00.11.19zm2.55-4.4v2.53l-2.21 1.28v-2.54zM172 301a.2.2 0 00-.23 0l-2.66 1.54a.23.23 0 00-.12.2v3.06a.22.22 0 00.12.2.22.22 0 00.22 0l2.67-1.54a.24.24 0 00.12-.2v-3.07a.22.22 0 00-.12-.19zm-.34.59v2.54l-2.21 1.27v-2.53zM195.38 287.44a.24.24 0 00-.23 0l-2.67 1.56a.23.23 0 00-.11.2v3.07a.21.21 0 00.11.19h.12a.2.2 0 00.11 0l2.67-1.54a.22.22 0 00.11-.2v-3.06a.27.27 0 00-.11-.22zm-.34.6v2.53l-2.2 1.28v-2.54zM218.46 274.63a.24.24 0 00-.23 0l-2.67 1.54a.23.23 0 00-.11.2v3.06a.25.25 0 00.12.2.23.23 0 00.11 0h.12l2.67-1.54a.22.22 0 00.11-.2v-3.06a.23.23 0 00-.12-.2zm-.34.6v2.53l-2.21 1.24v-2.5zM218.58 289.64l.01 2.08-48.93 28.49v-2.08l48.92-28.49zM218.57 285.81l.01 2.07-48.93 28.49v-2.06l48.92-28.5zM218.58 297.44l.01 2.08-48.93 28.49v-2.08l48.92-28.49zM218.57 293.61l.01 2.07-48.93 28.49v-2.07l48.92-28.49zM198.03 317.38l.01 2.07-28.38 16.51v-2.07l28.37-16.51zM218.57 301.57l.01 2.07-48.93 28.49v-2.07l48.92-28.49zM182.34 302.52l.01 2.08-12.71 7.48V310l12.7-7.48z"/><path class="cls-3" d="M233.41 312.51l45.27-26.13a7.34 7.34 0 003.67-6.36v-53.7a2.75 2.75 0 00-4.13-2.38L233 250.07a7.31 7.31 0 00-3.67 6.35v53.71a2.74 2.74 0 004.08 2.38z"/><path class="cls-14" d="M256.88 289.27v2.07l-22.72 13.08-.01-2.08 22.73-13.07zM278.75 272.94v2.07l-44.6 25.57-.01-2.07 44.61-25.57zM267.77 274.65l.01 2.07-33.65 19.57v-2.08l33.64-19.56z"/><path class="cls-17" d="M264.82 260.54l7.07-4.08-7.05 12.2-.02-8.12z"/><path class="cls-14" d="M271.84 237.96l.05 18.5-7.07 4.08.02 8.12 7.05-12.2-7.05 12.2-25.02 14.45-.08-26.62 32.1-18.53z"/><path class="cls-3" d="M346 132.19c0-2-.71-3.42-1.85-4.09-1.16-.65-2.76-.55-4.52.47L161.41 231.12A14.1 14.1 0 00155 242.2v8.31l191-110.24z"/><path class="cls-6" d="M346 132.19c0-2-.71-3.42-1.85-4.09-1.16-.65-2.76-.55-4.52.47L161.41 231.12A14.1 14.1 0 00155 242.2v8.31l191-110.24z"/><g class="cls-18"><path class="cls-14" d="M163.5 236.93c1-.56 1.75-.11 1.75 1a3.81 3.81 0 01-1.74 3c-1 .56-1.75.11-1.76-1a3.85 3.85 0 011.75-3zM168.28 234.17c1-.55 1.75-.11 1.75 1a3.85 3.85 0 01-1.74 3c-1 .56-1.75.11-1.76-1a3.85 3.85 0 011.75-3zM173.05 231.41c1-.55 1.76-.11 1.76 1a3.85 3.85 0 01-1.74 3c-1 .56-1.76.11-1.76-1a3.87 3.87 0 011.74-3z"/></g><path class="cls-3" d="M163.5 236.93c1-.56 1.75-.11 1.75 1a3.81 3.81 0 01-1.74 3c-1 .56-1.75.11-1.76-1a3.85 3.85 0 011.75-3zM168.28 234.17c1-.55 1.75-.11 1.75 1a3.85 3.85 0 01-1.74 3c-1 .56-1.75.11-1.76-1a3.85 3.85 0 011.75-3zM173.05 231.41c1-.55 1.76-.11 1.76 1a3.85 3.85 0 01-1.74 3c-1 .56-1.76.11-1.76-1a3.87 3.87 0 011.74-3z"/><g opacity=".3"><path class="cls-14" d="M157.32 389.71zM344.18 128.1zM346 132.19c0-2-.71-3.42-1.85-4.09a3.43 3.43 0 00-1.48-.41 3.43 3.43 0 011.48.41l-6.71-3.89c-1.17-.74-2.83-.68-4.66.38L154.56 227.15c-.23.14-.47.29-.69.45l-.22.16-.46.35-.23.21a5.14 5.14 0 00-.42.38l-.23.23a5.33 5.33 0 00-.4.42l-.21.23c-.13.16-.26.31-.39.48l-.18.22-.39.54c-.05.07-.1.14-.14.21s-.27.41-.4.63l-.09.14q-.24.4-.45.81l-.24.5a2.56 2.56 0 00-.11.24c-.07.15-.13.3-.19.45l-.12.3c-.06.14-.11.28-.16.42l-.11.35-.12.39c0 .13-.07.25-.1.38l-.09.37c0 .14-.06.28-.08.42l-.06.32-.06.48a2.46 2.46 0 000 .26v.74l.32 143.33a4.59 4.59 0 001.7 4l.36.2 6.62 3.86.1.06c1.16.61 2.73.49 4.45-.51L339.94 286.6a14.11 14.11 0 006.4-11.08z"/></g><path class="cls-3" d="M423.29 220.7v-3.14a4.35 4.35 0 00-1.95-3.37l-56.46-32.59a1.33 1.33 0 00-1.42-.11l-1.91 1.38s1.25.78 1.25.81h.12v4.42l58.51 33.78z"/><path d="M423.29 220.7v-3.14a4.35 4.35 0 00-1.95-3.37l-56.46-32.59a1.33 1.33 0 00-1.42-.11l-1.91 1.38s1.25.78 1.25.81h.12v4.42l58.51 33.78z" opacity=".7" fill="#fff"/><path class="cls-21" d="M421.42 221.85l-58.51-33.78-.11 40.14a4.25 4.25 0 001.94 3.37l55.6 32.1-.51.63.93 1.33 1.9-1.37a1.38 1.38 0 00.52-1.2l.12-42.37z"/><path class="cls-3" d="M419.48 215.54a4.26 4.26 0 011.95 3.37v2.94L361.05 187v-2.94c0-1.24.88-1.74 2-1.12z"/><g class="cls-18"><path class="cls-14" d="M419.48 215.54a4.26 4.26 0 011.95 3.37v2.94L361.05 187v-2.94c0-1.24.88-1.74 2-1.12z"/></g><path class="cls-10" d="M421.42 221.85l-.12 42.56c0 1.24-.88 1.74-2 1.11l-56.46-32.59a4.31 4.31 0 01-1.95-3.37l.12-42.56z"/><path class="cls-3" d="M380.88 233.65l-.01 1.78-16.76-9.68.01-1.77 16.76 9.67z"/><g class="cls-16"><path class="cls-3" d="M380.91 222.65l-.01 1.78-16.76-9.67.01-1.78 16.76 9.67zM375.88 212.08v1.77l-11.71-6.76v-1.78l11.71 6.77zM396.73 246.65l-.01 1.77-21.56-12.45.01-1.77 21.56 12.45zM402.12 242.06v1.78l-26.94-15.55.01-1.78 26.93 15.55zM388.58 215.03v1.77l-13.34-7.7v-1.78l13.34 7.71zM408.09 234.51v1.77l-32.88-18.98.01-1.77 32.87 18.98zM418.32 248.09v1.78l-43.13-24.9.01-1.78 43.12 24.9z"/></g><path class="cls-3" d="M418.38 228.9l-.01 1.77-43.12-24.9V204l43.13 24.9zM380.96 203.46v1.78l-16.76-9.68v-1.78l16.76 9.68z"/><g class="cls-18"><path class="cls-14" d="M380.88 233.65l-.01 1.78-16.76-9.68.01-1.77 16.76 9.67z"/><g class="cls-16"><path class="cls-14" d="M380.91 222.65l-.01 1.78-16.76-9.67.01-1.78 16.76 9.67zM375.88 212.08v1.77l-11.71-6.76v-1.78l11.71 6.77zM396.73 246.65l-.01 1.77-21.56-12.45.01-1.77 21.56 12.45zM402.12 242.06v1.78l-26.94-15.55.01-1.78 26.93 15.55zM388.58 215.03v1.77l-13.34-7.7v-1.78l13.34 7.71zM408.09 234.51v1.77l-32.88-18.98.01-1.77 32.87 18.98zM418.32 248.09v1.78l-43.13-24.9.01-1.78 43.12 24.9z"/></g><path class="cls-14" d="M418.38 228.9l-.01 1.77-43.12-24.9V204l43.13 24.9zM380.96 203.46v1.78l-16.76-9.68v-1.78l16.76 9.68z"/></g><path class="cls-3" d="M135.84 362.6v-3.14a4.29 4.29 0 011.95-3.37l56.46-32.6a1.33 1.33 0 011.42-.11l1.91 1.38s-1.24.78-1.24.81h-.13V330l-58.51 33.75z"/><path class="cls-8" d="M135.84 362.6v-3.14a4.29 4.29 0 011.95-3.37l56.46-32.6a1.33 1.33 0 011.42-.11l1.91 1.38s-1.24.78-1.24.81h-.13V330l-58.51 33.75z"/><path class="cls-21" d="M137.7 363.75L196.21 330l.12 40.14a4.29 4.29 0 01-2 3.37l-55.59 32.1.51.63-.94 1.34-1.9-1.37A1.39 1.39 0 01136 405l-.12-42.36z"/><path class="cls-3" d="M139.64 357.43a4.32 4.32 0 00-1.95 3.37v2.95l60.37-34.86V326c0-1.24-.88-1.74-2-1.11z"/><path class="cls-14" d="M139.64 357.43a4.32 4.32 0 00-1.95 3.37v2.95l60.37-34.86V326c0-1.24-.88-1.74-2-1.11z" opacity=".1"/><path class="cls-10" d="M137.7 363.75l.12 42.56c0 1.23.89 1.73 2 1.11l56.47-32.6a4.31 4.31 0 001.94-3.37l-.12-42.56z"/><path class="cls-3" d="M140.84 397.47v1.78l16.76-9.68-.01-1.77-16.75 9.67zM140.8 386.47l.01 1.78 16.76-9.68-.01-1.77-16.76 9.67zM140.8 378.91l.01 1.78 11.71-6.77v-1.77l-11.72 6.76zM152.56 394.21v1.77l21.57-12.45-.01-1.77-21.56 12.45zM152.61 386.59l.01 1.78 26.93-15.55v-1.78l-26.94 15.55zM151.63 367.94v1.78l13.35-7.71-.01-1.77-13.34 7.7zM152.63 375.14l.01 1.77 32.87-18.98v-1.77l-32.88 18.98zM152.61 383.4l.01 1.78 43.12-24.9v-1.78l-43.13 24.9zM151.57 364.76l.01 1.78 43.12-24.9v-1.78l-43.13 24.9zM140.75 367.27v1.78l16.76-9.67v-1.78l-16.76 9.67z"/><g class="cls-18"><path class="cls-14" d="M140.84 397.47v1.78l16.76-9.68-.01-1.77-16.75 9.67zM140.8 386.47l.01 1.78 16.76-9.68-.01-1.77-16.76 9.67zM140.8 378.91l.01 1.78 11.71-6.77v-1.77l-11.72 6.76zM152.56 394.21v1.77l21.57-12.45-.01-1.77-21.56 12.45zM152.61 386.59l.01 1.78 26.93-15.55v-1.78l-26.94 15.55zM151.63 367.94v1.78l13.35-7.71-.01-1.77-13.34 7.7zM152.63 375.14l.01 1.77 32.87-18.98v-1.77l-32.88 18.98zM152.61 383.4l.01 1.78 43.12-24.9v-1.78l-43.13 24.9zM151.57 364.76l.01 1.78 43.12-24.9v-1.78l-43.13 24.9zM140.75 367.27v1.78l16.76-9.67v-1.78l-16.76 9.67z"/></g><path class="cls-10" d="M292.36 339.55l-.07-24.91a3.62 3.62 0 011.66-2.88l34.41-19.87a1.2 1.2 0 011.15-.13l-2.15-1.29a1.17 1.17 0 00-1.15.13l-34.42 19.87a3.67 3.67 0 00-1.66 2.87l.07 24.91a1.18 1.18 0 00.5 1.08l2.15 1.28a1.18 1.18 0 01-.49-1.06z"/><path class="cls-10" d="M330 292.84a1.2 1.2 0 00-.4-1h-.12a1.2 1.2 0 00-1.15.13L294 311.76a3.62 3.62 0 00-1.66 2.88l.07 24.91a1 1 0 001.67.95l34.41-19.87a3.64 3.64 0 001.66-2.88z"/><path class="cls-6" d="M292.36 339.55l-.07-24.91a3.62 3.62 0 011.66-2.88l34.41-19.87a1.2 1.2 0 011.15-.13l-2.15-1.29a1.17 1.17 0 00-1.15.13l-34.42 19.87a3.67 3.67 0 00-1.66 2.87l.07 24.91a1.18 1.18 0 00.5 1.08l2.15 1.28a1.18 1.18 0 01-.49-1.06z"/><path class="cls-1" d="M307.33 314.57v1.88l-7 7.15 7.02-.94v1.89l-8.85 1.09-.01-1.95 8.84-9.12zM316.3 303.2l-6.45 25.13-1.72.99 6.46-25.13 1.71-.99zM316.92 309.03l8.85-1.09v1.95l-8.83 9.12v-1.88l7.02-7.17-7.04.95v-1.88z"/><path class="cls-2" d="M374.26 110.26c-2.59-1.49-4.77-.76-5.47 1.56a7.7 7.7 0 00-2.79-3.11c-2-1.17-3.68-.23-3.69 2.1v1.07l-2.72-1.57c-1.42-.82-2.57-.16-2.58 1.47a5.66 5.66 0 002.56 4.44l23.06 13.31c1.42.82 2.57.16 2.58-1.47a5.67 5.67 0 00-2.57-4.44l-2.72-1.57v-2a12.51 12.51 0 00-5.66-9.79zM406.54 145.69c-6.82-3.94-12.58-2-14.41 4.11a20.27 20.27 0 00-7.37-8.2c-5.34-3.09-9.69-.61-9.71 5.53V150l-7.17-4.14c-3.74-2.16-6.78-.42-6.79 3.88a14.85 14.85 0 006.75 11.69l60.76 35.08c3.74 2.16 6.79.43 6.8-3.87a14.88 14.88 0 00-6.76-11.7l-7.17-4.14v-5.19c.03-9.56-6.66-21.14-14.93-25.92z"/><path class="cls-10" d="M395.06 157.97l7.33 13.41-4.43-2.56-.03 9.91-5.86-3.38.03-9.91-4.43-2.56 7.39-4.91zM397.96 180.12l-.01 3.79-5.85-3.39.01-3.79 5.85 3.39zM397.96 185.43l-.01 1.89-5.85-3.38.01-1.89 5.85 3.38zM397.96 188.59l-.01 1.15-5.85-3.39.01-1.14 5.85 3.38z"/><g class="cls-18"><path class="cls-14" d="M395.06 157.97l7.33 13.41-4.43-2.56-.03 9.91-5.86-3.38.03-9.91-4.43-2.56 7.39-4.91zM397.96 180.12l-.01 3.79-5.85-3.39.01-3.79 5.85 3.39zM397.96 185.43l-.01 1.89-5.85-3.38.01-1.89 5.85 3.38zM397.96 188.59l-.01 1.15-5.85-3.39.01-1.14 5.85 3.38z"/></g><path class="cls-2" d="M212.75 93.32c6.82-3.93 12.58-2 14.41 4.11a20.27 20.27 0 017.37-8.2c5.34-3.08 9.69-.6 9.71 5.53v2.82l7.17-4.14c3.74-2.16 6.78-.42 6.79 3.88a14.87 14.87 0 01-6.75 11.7L190.7 144.1c-3.74 2.16-6.79.43-6.8-3.87a14.9 14.9 0 016.76-11.71l7.17-4.14v-5.18c-.04-9.52 6.65-21.1 14.92-25.88z"/><path class="cls-10" d="M223.5 144.25l7.33-13.41-4.42 2.56-.03-9.91-5.86 3.39.03 9.9-4.43 2.56 7.38 4.91zM226.41 122.11l-.01-3.79-5.86 3.38.01 3.79 5.86-3.38zM226.41 116.8l-.01-1.9-5.86 3.38.01 1.9 5.86-3.38zM226.41 113.63l-.01-1.14-5.86 3.38.01 1.14 5.86-3.38z"/><g class="cls-18"><path class="cls-14" d="M223.5 144.25l7.33-13.41-4.42 2.56-.03-9.91-5.86 3.39.03 9.9-4.43 2.56 7.38 4.91zM226.41 122.11l-.01-3.79-5.86 3.38.01 3.79 5.86-3.38zM226.41 116.8l-.01-1.9-5.86 3.38.01 1.9 5.86-3.38zM226.41 113.63l-.01-1.14-5.86 3.38.01 1.14 5.86-3.38z"/></g><path class="cls-23" d="M129.68 183.57l-.21.2zM121.63 182.21c.19-.09.39-.19.58-.3s.41-.25.61-.39a1.33 1.33 0 00.19-.14 3.79 3.79 0 00.4-.3l.22-.18.36-.31.21-.2c.1-.09.18-.18.27-.27l.43-.45.24-.28.25-.3.29-.37.17-.24c.11-.15.22-.3.32-.46l.12-.18c.14-.22.28-.43.4-.65a.75.75 0 00.07-.12c.11-.19.21-.38.31-.57l.09-.19c.11-.21.2-.41.3-.62v-.08c.1-.23.2-.47.28-.7l.08-.21c.06-.17.12-.34.17-.51a2.58 2.58 0 00.08-.26c.05-.15.08-.31.12-.46s.06-.21.08-.32 0-.24.07-.35l.09-.51v-.68-.7a8.18 8.18 0 00-.05-.88 5.67 5.67 0 00-.86.42 14 14 0 00-6.35 11 8.18 8.18 0 000 .88l.13-.05zM132.77 170.47l.17.17zM128.49 184.56l-.19.14zM132.39 170.15l.19.13zM133.84 172.45c0 .08 0 .16.07.24-.02-.08-.05-.16-.07-.24zM134 173.14a1.46 1.46 0 010 .22 1.46 1.46 0 000-.22zM133.41 171.32a2.39 2.39 0 01.12.22 2.39 2.39 0 00-.12-.22zM133.66 171.85l.09.23zM133.12 170.86a2.31 2.31 0 01.14.19 2.31 2.31 0 00-.14-.19zM133.83 160.73h.36-.36zM122.36 166.84l.15-.17zM130.37 182.85l-.42.45zM133.23 160.74zM133.32 177.88a1.72 1.72 0 01-.07.21 1.72 1.72 0 00.07-.21zM115.2 179.73c0-.16.09-.32.13-.48-.04.17-.08.33-.13.48zM123.06 166.11l.22-.23zM114.82 181.34l.15-.65zM124.63 186a.4.4 0 00.11 0h-.11zM131.65 181.2l.12-.18zM132.17 180.37l.06-.12zM123.59 185.73h.11zM132.54 179.68a1.14 1.14 0 00.1-.19 1.14 1.14 0 01-.1.19zM133.7 176.65c0-.11.05-.22.08-.33-.03.12-.06.23-.08.33zM134 175v-.92V175zM132.93 178.87v-.09a.59.59 0 010 .09zM133.85 176c0-.17.06-.34.08-.51-.02.15-.05.32-.08.51zM133.5 177.37a2.58 2.58 0 01.08-.26 2.58 2.58 0 00-.08.26zM131.15 181.9l.18-.24zM125.66 185.87l.26-.05zM125.13 186h.19zM124.05 185.87h.11zM126.2 185.74l.45-.16zM128.89 184.26l-.21.16c.21-.16.42-.33.62-.51l-.19.17zM127 185.46c.24-.11.48-.23.73-.37l-.58.3zM130.62 182.57l.24-.3z"/><path class="cls-17" d="M121 194.78l-.52.64 4.92 2.86-1-3.84a9.13 9.13 0 01-3.4.34zM140.49 166.52l3.86-1.06-4.93-2.86-.34.86a9.09 9.09 0 011.41 3.06zM134 173.14l-.06-.45c0-.08 0-.16-.07-.24l-.09-.37-.09-.23c0-.1-.08-.21-.13-.31a2.39 2.39 0 00-.12-.22c0-.09-.09-.18-.15-.27a2.31 2.31 0 00-.14-.19 1.92 1.92 0 00-.18-.22l-.17-.17-.19-.19-.19-.13a3.93 3.93 0 00-3.88-.12 8.18 8.18 0 01.05.88v1.38l-.09.51c0 .11 0 .23-.07.35s-.05.21-.08.32-.07.31-.12.46a2.58 2.58 0 01-.08.26c-.05.17-.11.34-.17.51l-.08.21c-.08.23-.18.47-.28.7v.08c-.1.21-.19.41-.3.62l-.09.19c-.1.19-.2.38-.31.57a.75.75 0 01-.07.12c-.12.22-.26.43-.4.65l-.12.18c-.1.16-.21.31-.32.46l-.17.24-.29.37-.25.3-.24.28-.43.45c-.09.09-.17.18-.27.27l-.21.2-.36.31-.22.18a3.79 3.79 0 01-.4.3 1.33 1.33 0 01-.19.14c-.2.14-.4.27-.61.39s-.39.21-.58.3l-.15.07-.13.05a4.06 4.06 0 001.83 3.21 2.17 2.17 0 00.41.19h.09a2.3 2.3 0 00.35.1h.1a3.56 3.56 0 00.47 0H125.44l.34-.06.25-.05.28-.08.44-.15.31-.12.15-.07.58-.3c.2-.12.41-.25.61-.39l.19-.14.19-.14.21-.16.22-.18.19-.17.17-.14.21-.2.27-.27.42-.45c.08-.09.17-.18.25-.28l.24-.3c.1-.12.2-.24.29-.37l.18-.24.32-.46.12-.18c.14-.21.27-.43.4-.65l.06-.12c.11-.19.21-.38.31-.57a1.14 1.14 0 00.1-.19c.1-.2.2-.41.29-.61a.59.59 0 000-.08c.1-.23.19-.46.28-.7a1.72 1.72 0 00.07-.21c.07-.17.12-.34.18-.51a2.58 2.58 0 01.08-.26l.12-.45c0-.1.05-.21.08-.32 0-.12 0-.23.07-.35 0-.17.06-.34.08-.51l.01-.4v-.22-.7a5.74 5.74 0 000-.73 1.46 1.46 0 000-.21zM112.23 189.73l-1.24.34-.54-.32-1.67 4.26 5.48 3.19 2-5.13-4.03-2.34zM130.24 158.38l4.1 2.38 3.44-4.3-5.47-3.18-2.93 3.65.56.32.3 1.13zM114.85 189l-2.62.71 4 2.34a8.85 8.85 0 01-1.38-3.05z"/><path class="cls-17" d="M131 161.09a9.28 9.28 0 012.26-.35H134.37l-4.1-2.38zM115 180.69c.07-.32.15-.64.23-.95 0-.15.09-.31.13-.47.25-.87.54-1.73.88-2.6l-5.47-3.18-.09.24c-.06.13-.1.27-.15.4l-.25.69a.88.88 0 010 .15c0 .12-.07.23-.1.34s-.17.52-.24.78c0 .07 0 .14-.07.22l-.06.25c-.09.32-.16.64-.24.95 0 .1 0 .19-.07.29s0 .24-.07.37l5.47 3.18zM120.92 168.5c.46-.58.94-1.13 1.44-1.66l.15-.17.55-.56.22-.23c.33-.32.67-.63 1-.93l-5.48-3.19c-.34.3-.67.62-1 .94l-.09.08-.45.47-.24.24-.76.84c-.28.31-.55.64-.81 1zM114.82 181.34l-5.47-3.18-3.85 3.39 5.47 3.18 3.85-3.39z"/><path class="cls-17" d="M110.97 184.73l-5.47-3.18.02 5.34 4.93 2.86.54.32-.02-5.34zM125.29 159.93l-5.47-3.18-1.01 5.01 5.48 3.19 1-5.02z"/><path class="cls-17" d="M129.94 157.25l-.56-.32-4.92-2.86-4.64 2.68 5.47 3.18 4.65-2.68zM114.19 173.86l-5.47-3.18 2.02 2.8 5.47 3.18-2.02-2.8zM120.92 168.5l-5.47-3.18-3.46-.32 5.48 3.18 3.45.32z"/><path class="cls-17" d="M117.47 168.18l-5.48-3.18-3.27 5.68 5.47 3.18 3.28-5.68zM140.51 174.2l3.85-3.4v-5.34l-3.86 1.06a9.09 9.09 0 00-1.41-3.06l.34-.86 1.66-4.26-3.3-1.88-3.44 4.3H133.24a9.28 9.28 0 00-2.26.35l-.73-2.71-.3-1.13-4.65 2.68-1 5c-.34.3-.68.61-1 .93l-.22.23-.55.56-.15.17c-.5.53-1 1.08-1.44 1.66l-3.45-.32-3.28 5.68 2 2.8c-.34.87-.63 1.73-.88 2.6 0 .16-.08.32-.13.48-.08.31-.16.63-.23.95l-.15.65-3.82 3.39v5.34l1.24-.34 2.62-.71a8.85 8.85 0 001.41 3l-2 5.13 3.3 1.87 2.92-3.65.52-.64a9.13 9.13 0 003.37-.34l1 3.84 4.65-2.68 1-5a27 27 0 003.36-3.54l3.46.31 3.27-5.68-2-2.8a27.57 27.57 0 001.39-4.64zm-6.51.8l-.06.46c0 .17-.05.34-.08.51s0 .23-.07.35-.06.22-.08.33l-.12.45a2.58 2.58 0 00-.08.26c-.06.17-.11.34-.18.51a1.72 1.72 0 01-.07.21c-.09.24-.18.47-.28.7v.09c-.09.2-.19.41-.29.61a1.14 1.14 0 01-.1.19c-.1.19-.2.38-.31.57l-.06.12c-.13.22-.26.44-.4.65l-.12.18-.32.46-.18.24c-.09.13-.19.25-.29.37l-.24.3c-.08.1-.17.19-.25.28l-.42.45-.27.27-.21.2-.17.14c-.2.18-.41.35-.62.51l-.19.14-.19.14c-.2.14-.41.27-.61.39s-.49.26-.73.37l-.31.12-.45.16-.28.08-.26.05-.34.06H124.79a.4.4 0 01-.11 0 3.56 3.56 0 01-.47 0h-.11a2.3 2.3 0 01-.35-.1h-.11a2.17 2.17 0 01-.41-.19 4.06 4.06 0 01-1.83-3.21 8.18 8.18 0 010-.88 14 14 0 016.35-11 5.67 5.67 0 01.86-.42 3.93 3.93 0 013.88.12l.19.13.19.19.17.17a1.92 1.92 0 01.18.22 2.31 2.31 0 01.14.19c.06.09.1.18.15.27a2.39 2.39 0 01.12.22c.05.1.09.21.13.31l.09.23.09.37c0 .08 0 .16.07.24l.06.45a1.46 1.46 0 010 .22 5.74 5.74 0 010 .73c-.07.21-.07.52-.07.82z"/><path class="cls-9" d="M121 194.78l-.52.64 4.92 2.86-1-3.84a9.13 9.13 0 01-3.4.34zM140.49 166.52l3.86-1.06-4.93-2.86-.34.86a9.09 9.09 0 011.41 3.06zM134 173.14l-.06-.45c0-.08 0-.16-.07-.24l-.09-.37-.09-.23c0-.1-.08-.21-.13-.31a2.39 2.39 0 00-.12-.22c0-.09-.09-.18-.15-.27a2.31 2.31 0 00-.14-.19 1.92 1.92 0 00-.18-.22l-.17-.17-.19-.19-.19-.13a3.93 3.93 0 00-3.88-.12 8.18 8.18 0 01.05.88v1.38l-.09.51c0 .11 0 .23-.07.35s-.05.21-.08.32-.07.31-.12.46a2.58 2.58 0 01-.08.26c-.05.17-.11.34-.17.51l-.08.21c-.08.23-.18.47-.28.7v.08c-.1.21-.19.41-.3.62l-.09.19c-.1.19-.2.38-.31.57a.75.75 0 01-.07.12c-.12.22-.26.43-.4.65l-.12.18c-.1.16-.21.31-.32.46l-.17.24-.29.37-.25.3-.24.28-.43.45c-.09.09-.17.18-.27.27l-.21.2-.36.31-.22.18a3.79 3.79 0 01-.4.3 1.33 1.33 0 01-.19.14c-.2.14-.4.27-.61.39s-.39.21-.58.3l-.15.07-.13.05a4.06 4.06 0 001.83 3.21 2.17 2.17 0 00.41.19h.09a2.3 2.3 0 00.35.1h.1a3.56 3.56 0 00.47 0H125.44l.34-.06.25-.05.28-.08.44-.15.31-.12.15-.07.58-.3c.2-.12.41-.25.61-.39l.19-.14.19-.14.21-.16.22-.18.19-.17.17-.14.21-.2.27-.27.42-.45c.08-.09.17-.18.25-.28l.24-.3c.1-.12.2-.24.29-.37l.18-.24.32-.46.12-.18c.14-.21.27-.43.4-.65l.06-.12c.11-.19.21-.38.31-.57a1.14 1.14 0 00.1-.19c.1-.2.2-.41.29-.61a.59.59 0 000-.08c.1-.23.19-.46.28-.7a1.72 1.72 0 00.07-.21c.07-.17.12-.34.18-.51a2.58 2.58 0 01.08-.26l.12-.45c0-.1.05-.21.08-.32 0-.12 0-.23.07-.35 0-.17.06-.34.08-.51l.01-.4v-.22-.7a5.74 5.74 0 000-.73 1.46 1.46 0 000-.21zM112.23 189.73l-1.24.34-.54-.32-1.67 4.26 5.48 3.19 2-5.13-4.03-2.34zM114.85 189l-2.62.71 4 2.34a8.85 8.85 0 01-1.38-3.05zM131 161.09a9.28 9.28 0 012.26-.35H134.37l-4.1-2.38zM115 180.69c.07-.32.15-.64.23-.95 0-.15.09-.31.13-.47.25-.87.54-1.73.88-2.6l-5.47-3.18-.09.24c-.06.13-.1.27-.15.4l-.25.69a.88.88 0 010 .15c0 .12-.07.23-.1.34s-.17.52-.24.78c0 .07 0 .14-.07.22l-.06.25c-.09.32-.16.64-.24.95 0 .1 0 .19-.07.29s0 .24-.07.37l5.47 3.18z"/><path class="cls-9" d="M110.97 184.73l-5.47-3.18.02 5.34 4.93 2.86.54.32-.02-5.34zM125.29 159.93l-5.47-3.18-1.01 5.01 5.48 3.19 1-5.02zM114.19 173.86l-5.47-3.18 2.02 2.8 5.47 3.18-2.02-2.8zM120.92 168.5l-5.47-3.18-3.46-.32 5.48 3.18 3.45.32z"/><path class="cls-24" d="M130.24 158.38l4.1 2.38 3.44-4.3-5.47-3.18-2.93 3.65.56.32.3 1.13zM120.92 168.5c.46-.58.94-1.13 1.44-1.66l.15-.17.55-.56.22-.23c.33-.32.67-.63 1-.93l-5.48-3.19c-.34.3-.67.62-1 .94l-.09.08-.45.47-.24.24-.76.84c-.28.31-.55.64-.81 1zM114.82 181.34l-5.47-3.18-3.85 3.39 5.47 3.18 3.85-3.39z"/><path class="cls-24" d="M129.94 157.25l-.56-.32-4.92-2.86-4.64 2.68 5.47 3.18 4.65-2.68zM117.47 168.18l-5.48-3.18-3.27 5.68 5.47 3.18 3.28-5.68z"/><path class="cls-23" d="M165.67 168.33l-.15.14zM160 167.37l.41-.22a3.87 3.87 0 00.43-.27l.14-.1.28-.21.15-.13.26-.22.15-.14.19-.19.3-.32.17-.2.18-.21.2-.26.13-.17.22-.32.09-.13.28-.47a.56.56 0 00.05-.08l.21-.4a.91.91 0 00.07-.14c.08-.14.14-.29.21-.43a.14.14 0 000-.06 4.34 4.34 0 00.2-.5l.06-.14.12-.37.06-.18c0-.11.05-.22.08-.32l.06-.23c0-.09 0-.17.05-.25l.06-.36v-.32-.16-.5a4.12 4.12 0 000-.62 4.2 4.2 0 00-.6.3 9.89 9.89 0 00-4.5 7.78 6.06 6.06 0 000 .62h.09zM167.86 159.06l.12.12zM161.07 169.73zM164.83 169l-.14.1zM167.59 158.84l.13.09zM168.62 160.46v.18c0 .06.01-.12 0-.18zM168.71 161v0zM168.31 159.67l.09.15zM168.49 160l.06.17zM168.1 159.34a1.34 1.34 0 01.11.14 1.34 1.34 0 00-.11-.14zM168.61 152.17h.26-.26zM160.49 156.5l.11-.12zM166.16 167.82l-.3.32zM168.19 152.18zM168.25 164.31c0 .05 0 .1-.05.14s.03-.09.05-.14zM155.43 165.62l.09-.34zM161 156l.16-.16zM155.16 166.75c0-.15.07-.31.11-.46-.04.15-.08.31-.11.46zM162.1 170zM167.06 166.66l.09-.13zM167.43 166.06a.56.56 0 000-.08.56.56 0 010 .08zM161.36 169.86h.08zM167.7 165.58l.07-.14-.07.14zM168.51 163.44l.06-.23zM168.72 162.28v-.66.5c0 .17.01.11 0 .16zM168 165v-.06zM168.62 163l.06-.36zM168.37 164l.06-.19-.06.19zM166.71 167.15l.13-.17zM162.83 170h.18zM162.45 170zM161.69 170h.08-.08zM163.21 169.87l.32-.11zM165.11 168.82l-.15.11.45-.36-.14.12zM163.75 169.67a4.19 4.19 0 00.51-.27 3.23 3.23 0 01-.41.22zM166.33 167.62l.18-.21z"/><path class="cls-17" d="M159.53 176.26l-.36.46 3.47 2-.72-2.72a6.51 6.51 0 01-2.39.26zM173.32 156.27l2.73-.75-3.49-2-.24.61a6.3 6.3 0 011 2.14zM168.71 161c0-.11 0-.21-.05-.31s0-.12 0-.18a2.33 2.33 0 00-.07-.25l-.06-.17-.09-.22-.09-.15a1.14 1.14 0 00-.1-.19 1.34 1.34 0 00-.11-.14 1.67 1.67 0 00-.12-.16l-.12-.12-.14-.13-.13-.09a2.78 2.78 0 00-2.75-.09 4.12 4.12 0 010 .62v.98l-.06.36c0 .08 0 .16-.05.25l-.06.23c0 .1 0 .21-.08.32l-.06.18-.12.37-.06.14a4.34 4.34 0 01-.2.5.14.14 0 010 .06c-.07.14-.13.29-.21.43a.91.91 0 01-.07.14l-.21.4a.56.56 0 01-.05.08l-.28.47-.09.13-.22.32-.13.17-.2.26-.18.21-.17.2-.3.32-.19.19-.15.14-.26.22-.15.13-.28.21-.14.1a3.87 3.87 0 01-.43.27l-.41.22h-.2a2.85 2.85 0 001.29 2.27l.29.13h.07l.25.07h1.52l.31-.11.22-.09h.1a3.23 3.23 0 00.41-.22 3.87 3.87 0 00.43-.27l.14-.1.13-.1.15-.11.16-.13.14-.12.11-.1.15-.14c.07-.06.13-.13.19-.19l.3-.32c.06-.07.12-.13.17-.2l.18-.21c.07-.09.14-.17.2-.26l.13-.17.22-.32.09-.13c.1-.15.19-.31.28-.47a.56.56 0 000-.08c.07-.13.15-.26.22-.4l.07-.14c.07-.14.14-.28.2-.43v-.06c.07-.16.14-.33.2-.5s0-.09.05-.14l.12-.36.06-.19c0-.11.06-.21.08-.32l.06-.23c0-.09 0-.17.05-.25l.06-.36v-.32-.16-.5a4.12 4.12 0 000-.51c.06-.13.04-.18.04-.18zM153.32 172.69l-.87.24-.38-.23-1.18 3.02 3.87 2.25 1.42-3.62-2.86-1.66zM166.07 150.51l2.9 1.68 2.43-3.04-3.87-2.25-2.07 2.58.39.23.22.8zM155.18 172.18l-1.86.51 2.86 1.66a6.3 6.3 0 01-1-2.17z"/><path class="cls-17" d="M166.58 152.43a6.71 6.71 0 011.61-.25H168.97l-2.9-1.68zM155.27 166.29c0-.22.1-.45.16-.67l.09-.34c.18-.61.39-1.23.63-1.84l-3.88-2.25-.06.17c0 .1-.07.19-.1.28l-.18.49v.11a2.17 2.17 0 00-.07.24c-.06.18-.12.37-.17.55s0 .1-.05.15 0 .13 0 .19c-.06.22-.12.45-.17.67a1.46 1.46 0 010 .2c0 .09 0 .17-.05.26l3.87 2.25c-.1-.15-.06-.31-.02-.46zM159.48 157.67c.32-.41.66-.8 1-1.17l.11-.12.39-.4.16-.16c.23-.23.47-.45.71-.66L158 152.9l-.71.67-.06.06c-.11.1-.21.21-.32.32l-.17.18-.54.59c-.2.23-.39.45-.58.69zM155.16 166.75l-3.87-2.25-2.72 2.4 3.87 2.25 2.72-2.4z"/><path class="cls-17" d="M152.44 169.15l-3.87-2.25.01 3.78 3.49 2.02.38.23-.01-3.78zM162.57 151.61l-3.88-2.25-.71 3.54 3.88 2.26.71-3.55zM165.85 149.71l-.39-.23-3.48-2.02-3.29 1.9 3.88 2.25 3.28-1.9zM154.72 161.46l-3.88-2.25 1.43 1.98 3.88 2.25-1.43-1.98zM159.48 157.67l-3.88-2.25-2.44-.23 3.87 2.25 2.45.23z"/><path class="cls-9" d="M159.53 176.26l-.36.46 3.47 2-.72-2.72a6.51 6.51 0 01-2.39.26zM173.32 156.27l2.73-.75-3.49-2-.24.61a6.3 6.3 0 011 2.14zM168.71 161c0-.11 0-.21-.05-.31s0-.12 0-.18a2.33 2.33 0 00-.07-.25l-.06-.17-.09-.22-.09-.15a1.14 1.14 0 00-.1-.19 1.34 1.34 0 00-.11-.14 1.67 1.67 0 00-.12-.16l-.12-.12-.14-.13-.13-.09a2.78 2.78 0 00-2.75-.09 4.12 4.12 0 010 .62v.98l-.06.36c0 .08 0 .16-.05.25l-.06.23c0 .1 0 .21-.08.32l-.06.18-.12.37-.06.14a4.34 4.34 0 01-.2.5.14.14 0 010 .06c-.07.14-.13.29-.21.43a.91.91 0 01-.07.14l-.21.4a.56.56 0 01-.05.08l-.28.47-.09.13-.22.32-.13.17-.2.26-.18.21-.17.2-.3.32-.19.19-.15.14-.26.22-.15.13-.28.21-.14.1a3.87 3.87 0 01-.43.27l-.41.22h-.2a2.85 2.85 0 001.29 2.27l.29.13h.07l.25.07h1.52l.31-.11.22-.09h.1a3.23 3.23 0 00.41-.22 3.87 3.87 0 00.43-.27l.14-.1.13-.1.15-.11.16-.13.14-.12.11-.1.15-.14c.07-.06.13-.13.19-.19l.3-.32c.06-.07.12-.13.17-.2l.18-.21c.07-.09.14-.17.2-.26l.13-.17.22-.32.09-.13c.1-.15.19-.31.28-.47a.56.56 0 000-.08c.07-.13.15-.26.22-.4l.07-.14c.07-.14.14-.28.2-.43v-.06c.07-.16.14-.33.2-.5s0-.09.05-.14l.12-.36.06-.19c0-.11.06-.21.08-.32l.06-.23c0-.09 0-.17.05-.25l.06-.36v-.32-.16-.5a4.12 4.12 0 000-.51c.06-.13.04-.18.04-.18zM153.32 172.69l-.87.24-.38-.23-1.18 3.02 3.87 2.25 1.42-3.62-2.86-1.66zM155.18 172.18l-1.86.51 2.86 1.66a6.3 6.3 0 01-1-2.17zM166.58 152.43a6.71 6.71 0 011.61-.25H168.97l-2.9-1.68zM155.27 166.29c0-.22.1-.45.16-.67l.09-.34c.18-.61.39-1.23.63-1.84l-3.88-2.25-.06.17c0 .1-.07.19-.1.28l-.18.49v.11a2.17 2.17 0 00-.07.24c-.06.18-.12.37-.17.55s0 .1-.05.15 0 .13 0 .19c-.06.22-.12.45-.17.67a1.46 1.46 0 010 .2c0 .09 0 .17-.05.26l3.87 2.25c-.1-.15-.06-.31-.02-.46z"/><path class="cls-9" d="M152.44 169.15l-3.87-2.25.01 3.78 3.49 2.02.38.23-.01-3.78zM162.57 151.61l-3.88-2.25-.71 3.54 3.88 2.26.71-3.55zM154.72 161.46l-3.88-2.25 1.43 1.98 3.88 2.25-1.43-1.98zM159.48 157.67l-3.88-2.25-2.44-.23 3.87 2.25 2.45.23z"/><path class="cls-17" d="M157.03 157.44l-3.87-2.25-2.32 4.02 3.88 2.25 2.31-4.02z"/><path class="cls-24" d="M166.07 150.51l2.9 1.68 2.43-3.04-3.87-2.25-2.07 2.58.39.23.22.8zM159.48 157.67c.32-.41.66-.8 1-1.17l.11-.12.39-.4.16-.16c.23-.23.47-.45.71-.66L158 152.9l-.71.67-.06.06c-.11.1-.21.21-.32.32l-.17.18-.54.59c-.2.23-.39.45-.58.69zM155.16 166.75l-3.87-2.25-2.72 2.4 3.87 2.25 2.72-2.4z"/><path class="cls-24" d="M165.85 149.71l-.39-.23-3.48-2.02-3.29 1.9 3.88 2.25 3.28-1.9zM157.03 157.44l-3.87-2.25-2.32 4.02 3.88 2.25 2.31-4.02z"/><path class="cls-17" d="M173.34 161.7l2.72-2.4v-3.78l-2.73.75a6.3 6.3 0 00-1-2.17l.24-.61 1.18-3-2.34-1.33-2.43 3h-.78a6.71 6.71 0 00-1.61.25l-.51-1.92-.22-.8-3.28 1.9-.71 3.55c-.24.21-.48.43-.71.66l-.16.2-.39.4-.11.12c-.35.37-.69.76-1 1.17l-2.45-.22-2.31 4 1.43 2c-.24.61-.45 1.23-.63 1.84l-.09.34c-.06.22-.11.45-.16.67s-.08.31-.11.46l-2.72 2.4v3.78l.87-.24 1.86-.51a6.3 6.3 0 001 2.17l-1.43 3.62 2.34 1.33 2.07-2.58.36-.46a6.51 6.51 0 002.39-.24l.72 2.72 3.29-1.9.71-3.55a19 19 0 002.38-2.51l2.45.22 2.31-4-1.43-2a19.81 19.81 0 00.99-3.33zm-4.62.58v.32l-.06.36c0 .08 0 .16-.05.25l-.06.23c0 .11 0 .21-.08.32l-.06.19-.12.36c0 .05 0 .1-.05.14s-.13.34-.2.5v.06c-.06.15-.13.29-.2.43l-.07.14c-.07.14-.15.27-.22.4a.56.56 0 010 .08c-.09.16-.18.32-.28.47l-.09.13-.22.32-.13.17c-.06.09-.13.17-.2.26l-.18.21c-.05.07-.11.13-.17.2l-.3.32c-.06.06-.12.13-.19.19l-.15.14-.11.1-.45.36-.13.1-.14.1a3.87 3.87 0 01-.43.27 4.19 4.19 0 01-.51.27l-.22.09-.32.11h-1.52l-.25-.07h-.08l-.29-.13a2.85 2.85 0 01-1.29-2.27 6.06 6.06 0 010-.62 9.89 9.89 0 014.5-7.78 4.2 4.2 0 01.6-.3 2.78 2.78 0 012.75.09l.13.09.14.13.12.12a1.67 1.67 0 01.12.16 1.34 1.34 0 01.11.14 1.14 1.14 0 01.1.19l.09.15.09.22.06.17a2.33 2.33 0 01.07.25v.18c0 .06 0 .2.05.31s0 .1 0 .16a4.12 4.12 0 010 .51c-.07.27-.09.49-.11.71z"/><path class="cls-23" d="M437.7 261.81l.14.13zM442.79 261l-.37-.19-.39-.24-.12-.09-.25-.19-.14-.12-.22-.19-.14-.13-.17-.17-.27-.29-.15-.17-.16-.19-.18-.23-.11-.16-.2-.28-.08-.12c-.09-.13-.17-.27-.25-.41v-.07c-.07-.12-.14-.24-.2-.36l-.06-.13-.18-.39v-.05c-.06-.14-.12-.29-.17-.44a.69.69 0 01-.05-.13c0-.11-.08-.22-.11-.32l-.05-.17-.08-.29a1.46 1.46 0 00-.05-.2v-.22l-.06-.32v-.29a.71.71 0 010-.14 3.39 3.39 0 010-.45 4.8 4.8 0 010-.55 5.4 5.4 0 01.55.26 8.87 8.87 0 014 7 4.92 4.92 0 010 .56h-.08zM435.75 253.54a.52.52 0 00-.11.1.52.52 0 01.11-.1zM438.46 262.44l.12.09zM436 253.33l-.12.09zM435.07 254.79v.15c0 .05-.01-.1 0-.15zM435 255.22a.68.68 0 010 .14.68.68 0 000-.14zM435.34 254.08s0 .08-.07.13.05-.09.07-.13zM435.19 254.41c0 .05 0 .09-.06.15s.04-.1.06-.15zM435.53 253.78l-.09.13zM435.08 247.39zM442.33 251.24l-.1-.1zM437.27 261.35a3.58 3.58 0 00.26.29 3.58 3.58 0 01-.26-.29zM435.46 247.39zM435.4 258.22s0 .09.05.13-.03-.09-.05-.13zM446.85 259.39l-.09-.3zM441.89 250.78l-.15-.14zM447.09 260.4c0-.14-.07-.27-.1-.41.01.14.07.27.1.41zM440.89 263.32zM436.46 260.32l-.08-.12zM436.13 259.79a.43.43 0 000-.07.43.43 0 010 .07zM441.55 263.18h-.07zM435.89 259.36l-.06-.13.06.13zM435.16 257.44a1.46 1.46 0 00-.05-.2 1.46 1.46 0 01.05.2zM435 256.41v-.59V256.41zM435.65 258.84a.14.14 0 010-.06.08.08 0 000 .06zM435.07 257c0-.11 0-.22-.05-.32-.02.12.03.23.05.32zM435.29 257.9l-.05-.17.05.17zM436.77 260.76l-.11-.16zM440.24 263.27h-.16zM440.58 263.31zM441.26 263.26h-.07zM439.9 263.18l-.28-.1zM438.2 262.25l.14.1c-.14-.1-.27-.21-.4-.32l.13.1zM439.42 263a3.94 3.94 0 01-.46-.23l.37.19zM437.11 261.18c-.05-.06-.1-.13-.16-.19l.16.19z"/><path class="cls-17" d="M443.19 268.89l.32.41-3.1 1.8.65-2.42a5.7 5.7 0 002.13.21zM430.87 251l-2.43-.67 3.11-1.81.21.55a5.93 5.93 0 00-.89 1.93zM435 255.22v-.28-.15l.06-.23c0-.06 0-.1.06-.15s.05-.14.08-.2.05-.09.07-.13a1 1 0 01.1-.17l.09-.13s.07-.1.11-.14a.52.52 0 01.11-.1 1.36 1.36 0 01.12-.12l.12-.09a2.5 2.5 0 012.45-.07 4.8 4.8 0 000 .55 3.39 3.39 0 000 .45.71.71 0 000 .14v.29l.06.32v.22a1.46 1.46 0 01.05.2l.08.29.05.17c0 .1.07.21.11.32a.69.69 0 00.05.13c0 .15.11.3.17.44v.05l.18.39.06.13c.06.12.13.24.2.36v.07c.08.14.16.28.25.41l.08.12.2.28.11.16.18.23.16.19.15.17.27.29.17.17.14.13.22.19.14.12.25.19.12.09.39.24.37.19H442.75a2.59 2.59 0 01-1.15 2l-.26.12h-.06a.9.9 0 01-.22.06h-1.17l-.18-.05-.28-.1-.2-.08h-.09l-.37-.19c-.13-.07-.26-.16-.38-.24l-.12-.09-.12-.09-.14-.1-.13-.12-.13-.1-.1-.09-.14-.13-.17-.17a3.58 3.58 0 01-.26-.29 1.29 1.29 0 01-.16-.17c-.05-.06-.1-.13-.16-.19l-.18-.23-.11-.16-.2-.28-.08-.12-.25-.41a.43.43 0 000-.07l-.2-.36-.06-.13-.18-.38a3.38 3.38 0 01-.18-.44s0-.09-.05-.13-.07-.22-.11-.32l-.05-.17-.08-.29a1.46 1.46 0 00-.05-.2v-.22c0-.11 0-.22-.05-.32v-.29-.14-.45-.46a.68.68 0 00.07-.14zM448.73 265.7l.78.22.34-.2 1.05 2.69-3.46 2.01-1.26-3.24 2.55-1.48zM437.35 245.9l-2.59 1.5-2.18-2.71 3.46-2.01 1.85 2.3-.35.21-.19.71z"/><path class="cls-17" d="M447.07 265.25l1.66.45-2.55 1.48a5.64 5.64 0 00.89-1.93zM436.89 247.61a6.91 6.91 0 00-1.43-.22h-.7l2.59-1.5zM447 260c0-.2-.09-.4-.14-.6l-.09-.3a16.62 16.62 0 00-.55-1.64l3.46-2c0 .05 0 .1.05.15a2.5 2.5 0 01.09.25c.06.15.11.29.16.44a1 1 0 010 .1l.06.21c.05.16.11.33.15.49a.74.74 0 010 .14.75.75 0 010 .16q.09.3.15.6c0 .06 0 .12.05.18s0 .15 0 .23l-3.45 2c.12-.15.06-.28.06-.41zM443.23 252.29q-.44-.54-.9-1l-.1-.1-.34-.36-.15-.14-.63-.59 3.46-2 .63.59.06.05.28.3.15.15c.16.17.33.35.48.53l.51.61zM447.08 260.4l3.46-2.01 2.44 2.14-3.46 2.01-2.44-2.14zM449.52 262.54l3.46-2.01-.02 3.37-3.11 1.82-.34.2.01-3.38zM440.47 246.88l3.46-2.01.64 3.17-3.46 2.01-.64-3.17z"/><path class="cls-17" d="M437.54 245.19l.35-.21 3.11-1.8 2.93 1.69-3.46 2.01-2.93-1.69zM447.48 255.68l3.46-2.01-1.27 1.77-3.46 2.01 1.27-1.77zM443.23 252.29l3.46-2.01 2.18-.2-3.46 2.01-2.18.2z"/><path class="cls-17" d="M445.41 252.09l3.46-2.01 2.07 3.59-3.46 2.01-2.07-3.59zM431.74 258.84l-1.28 1.77 2.07 3.59 2.18-.2a17.46 17.46 0 002.13 2.24l.63 3.17 2.94 1.69.65-2.42a5.7 5.7 0 002.13.21l.32.41 1.85 2.3 2.08-1.18-1.26-3.24a5.64 5.64 0 00.89-1.93l1.66.45.78.22v-3.38l-2.43-2.14c0-.14-.07-.27-.1-.41s-.09-.4-.14-.6l-.09-.3a16.62 16.62 0 00-.55-1.64l1.27-1.77-2.07-3.59-2.18.2q-.44-.54-.9-1l-.1-.1-.34-.36-.15-.14-.63-.59-.64-3.17-2.93-1.69-.19.71-.46 1.71a6.91 6.91 0 00-1.43-.22h-.7l-2.17-2.71-2.09 1.18 1.05 2.69.21.55a5.93 5.93 0 00-.89 1.93l-2.43-.67v3.38l2.43 2.14a17.11 17.11 0 00.88 2.91zm3.21-3v-.46a.68.68 0 000-.14v-.28-.15l.06-.23c0-.06 0-.1.06-.15s.05-.14.08-.2.05-.09.07-.13a1 1 0 01.1-.17l.09-.13s.07-.1.11-.14a.52.52 0 01.11-.1 1.36 1.36 0 01.12-.12l.12-.09a2.5 2.5 0 012.45-.07 5.4 5.4 0 01.55.26 8.87 8.87 0 014 7 4.92 4.92 0 010 .56 2.59 2.59 0 01-1.15 2l-.26.12h-.07a.9.9 0 01-.22.06h-1.18l-.18-.05-.28-.1-.2-.08a3.94 3.94 0 01-.46-.23c-.13-.07-.26-.16-.38-.24l-.12-.09-.12-.09c-.14-.1-.27-.21-.4-.32l-.1-.09-.14-.13-.17-.17a3.58 3.58 0 01-.26-.29 1.29 1.29 0 01-.16-.17c-.05-.06-.1-.13-.16-.19l-.18-.23-.11-.16-.2-.28-.08-.12-.25-.41a.43.43 0 000-.07l-.2-.36-.06-.13-.18-.38a.14.14 0 010-.06 3.38 3.38 0 01-.18-.44s0-.09-.05-.13-.07-.22-.11-.32l-.05-.17-.08-.29a1.46 1.46 0 00-.05-.2v-.22c0-.07 0-.22-.05-.32s0-.2 0-.29-.03-.46-.03-.64z"/><path class="cls-9" d="M443.19 268.89l.32.41-3.1 1.8.65-2.42a5.7 5.7 0 002.13.21zM430.87 251l-2.43-.67 3.11-1.81.21.55a5.93 5.93 0 00-.89 1.93zM435 255.22v-.28-.15l.06-.23c0-.06 0-.1.06-.15s.05-.14.08-.2.05-.09.07-.13a1 1 0 01.1-.17l.09-.13s.07-.1.11-.14a.52.52 0 01.11-.1 1.36 1.36 0 01.12-.12l.12-.09a2.5 2.5 0 012.45-.07 4.8 4.8 0 000 .55 3.39 3.39 0 000 .45.71.71 0 000 .14v.29l.06.32v.22a1.46 1.46 0 01.05.2l.08.29.05.17c0 .1.07.21.11.32a.69.69 0 00.05.13c0 .15.11.3.17.44v.05l.18.39.06.13c.06.12.13.24.2.36v.07c.08.14.16.28.25.41l.08.12.2.28.11.16.18.23.16.19.15.17.27.29.17.17.14.13.22.19.14.12.25.19.12.09.39.24.37.19H442.75a2.59 2.59 0 01-1.15 2l-.26.12h-.06a.9.9 0 01-.22.06h-1.17l-.18-.05-.28-.1-.2-.08h-.09l-.37-.19c-.13-.07-.26-.16-.38-.24l-.12-.09-.12-.09-.14-.1-.13-.12-.13-.1-.1-.09-.14-.13-.17-.17a3.58 3.58 0 01-.26-.29 1.29 1.29 0 01-.16-.17c-.05-.06-.1-.13-.16-.19l-.18-.23-.11-.16-.2-.28-.08-.12-.25-.41a.43.43 0 000-.07l-.2-.36-.06-.13-.18-.38a3.38 3.38 0 01-.18-.44s0-.09-.05-.13-.07-.22-.11-.32l-.05-.17-.08-.29a1.46 1.46 0 00-.05-.2v-.22c0-.11 0-.22-.05-.32v-.29-.14-.45-.46a.68.68 0 00.07-.14zM448.73 265.7l.78.22.34-.2 1.05 2.69-3.46 2.01-1.26-3.24 2.55-1.48z"/><path class="cls-9" d="M447.07 265.25l1.66.45-2.55 1.48a5.64 5.64 0 00.89-1.93zM436.89 247.61a6.91 6.91 0 00-1.43-.22h-.7l2.59-1.5zM447 260c0-.2-.09-.4-.14-.6l-.09-.3a16.62 16.62 0 00-.55-1.64l3.46-2c0 .05 0 .1.05.15a2.5 2.5 0 01.09.25c.06.15.11.29.16.44a1 1 0 010 .1l.06.21c.05.16.11.33.15.49a.74.74 0 010 .14.75.75 0 010 .16q.09.3.15.6c0 .06 0 .12.05.18s0 .15 0 .23l-3.45 2c.12-.15.06-.28.06-.41zM449.52 262.54l3.46-2.01-.02 3.37-3.11 1.82-.34.2.01-3.38zM440.47 246.88l3.46-2.01.64 3.17-3.46 2.01-.64-3.17zM447.48 255.68l3.46-2.01-1.27 1.77-3.46 2.01 1.27-1.77zM443.23 252.29l3.46-2.01 2.18-.2-3.46 2.01-2.18.2z"/><path class="cls-24" d="M437.35 245.9l-2.59 1.5-2.18-2.71 3.46-2.01 1.85 2.3-.35.21-.19.71zM443.23 252.29q-.44-.54-.9-1l-.1-.1-.34-.36-.15-.14-.63-.59 3.46-2 .63.59.06.05.28.3.15.15c.16.17.33.35.48.53l.51.61zM447.08 260.4l3.46-2.01 2.44 2.14-3.46 2.01-2.44-2.14z"/><path class="cls-24" d="M437.54 245.19l.35-.21 3.11-1.8 2.93 1.69-3.46 2.01-2.93-1.69zM445.41 252.09l3.46-2.01 2.07 3.59-3.46 2.01-2.07-3.59z"/><path class="cls-23" d="M454.23 286.81l.09.09zM457.74 286.22l-.25-.13-.27-.17-.08-.06-.17-.13-.1-.08-.16-.14-.09-.09-.12-.11-.18-.2-.11-.12-.11-.13-.12-.17-.08-.1-.14-.2a.35.35 0 01-.05-.08l-.18-.29-.13-.24a.36.36 0 010-.09c-.05-.09-.09-.18-.13-.27l-.12-.31v-.09c0-.08 0-.15-.08-.22v-.12l-.06-.2V282.19a2.07 2.07 0 010-.22 1.5 1.5 0 010-.2.38.38 0 010-.1v-.69a3.14 3.14 0 01.37.18 6.11 6.11 0 012.78 4.81v.38h-.06zM452.87 281.09l-.07.07zM454.75 287.25l.08.06zM453 281zM452.41 282v.11zM452.35 282.26v0zM452.6 281.46l-.06.1zM452.49 281.69v.11c0 .04-.01-.07 0-.11zM452.72 281.26l-.06.08zM452.42 276.84zM457.43 279.5l-.07-.07zM453.92 286.5l.19.2zM452.67 276.84zM452.63 284.33a.36.36 0 010 .09.36.36 0 000-.09zM460.55 285.14c0-.07 0-.14-.05-.21.02.07.03.14.05.21zM457.12 279.19l-.1-.1zM460.72 285.84c0-.1 0-.19-.07-.29.03.1.05.19.07.29zM456.43 287.86zM453.37 285.78l-.06-.08zM453.14 285.41v-.05zM456.89 287.76h-.05.05zM453 285.12l-.05-.09.05.09zM452.47 283.79v-.14zM452.34 283.08v-.41.31a.31.31 0 010 .1zM452.81 284.76zM452.41 283.5a2.07 2.07 0 010-.22 2.07 2.07 0 000 .22zM452.56 284.11a.56.56 0 000-.12.56.56 0 010 .12zM453.58 286.08l-.07-.1zM456 287.82h-.12zM456.22 287.85zM456.69 287.82zM455.75 287.76l-.2-.07zM454.57 287.12l.1.07a3.11 3.11 0 01-.28-.23l.09.08zM455.42 287.64a3.18 3.18 0 01-.32-.16l.25.13zM453.82 286.38l-.11-.13z"/><path class="cls-17" d="M458 291.71l.23.28-2.15 1.25.45-1.68a3.8 3.8 0 001.47.15zM449.5 279.36l-1.68-.46 2.15-1.25.15.38a4 4 0 00-.62 1.33zM452.35 282.26v-.31a.83.83 0 010-.15v-.11c0-.04 0-.09.05-.13l.06-.1.06-.12.06-.08.08-.1.07-.07.27-.09a1.72 1.72 0 011.7-.05v.69a.38.38 0 000 .1 1.5 1.5 0 000 .2 2.07 2.07 0 000 .22V282.45l.06.2v.12c0 .07.05.14.08.22v.09l.12.31c0 .09.08.18.13.27a.36.36 0 000 .09l.13.24.18.29a.35.35 0 00.05.08l.14.2.08.1.12.17.11.13.11.12.18.2.12.11.09.09.16.14.1.08.17.13.08.06.27.17.25.13h.13a1.81 1.81 0 01-.8 1.41l-.18.08H455.44l-.2-.07-.13-.05h-.07l-.25-.13-.27-.17-.08-.06-.08-.06-.1-.07-.09-.08-.09-.08-.07-.06-.09-.09-.12-.11-.19-.2-.1-.12-.11-.13-.13-.17-.07-.1a2.43 2.43 0 01-.14-.2l-.06-.08a2.75 2.75 0 01-.17-.29v-.05c-.05-.08-.09-.16-.13-.24l-.05-.09-.12-.27-.12-.31a.36.36 0 000-.09c0-.08-.05-.15-.07-.22a.56.56 0 000-.12v-.34a.8.8 0 010-.15 2.07 2.07 0 010-.22v-.2a.31.31 0 000-.1v-.31-.32c0-.11.01-.04.01-.07zM461.85 289.51l.54.14.24-.13.73 1.86-2.4 1.39-.87-2.24 1.76-1.02zM453.98 275.81l-1.79 1.04-1.5-1.88 2.39-1.39 1.28 1.59-.25.14-.13.5zM460.71 289.19l1.14.32-1.76 1a4 4 0 00.62-1.32z"/><path class="cls-17" d="M453.66 277a4.4 4.4 0 00-1-.15h-.48l1.79-1zM460.65 285.55c0-.13-.06-.27-.1-.41 0-.07 0-.14-.05-.21a11.6 11.6 0 00-.39-1.13l2.39-1.39a.42.42 0 010 .1c0 .06 0 .12.07.17a2.83 2.83 0 00.11.31.14.14 0 000 .06.83.83 0 010 .15c0 .11.08.23.11.34V283.75c0 .04.08.28.11.41V284.45l-2.39 1.39c.19-.1.17-.19.14-.29zM458.05 280.23c-.2-.25-.41-.49-.62-.73l-.07-.07-.24-.24-.1-.1a5.62 5.62 0 00-.44-.41l2.4-1.39.43.4.2.2.1.11c.12.12.23.24.34.37l.36.43zM460.72 285.84l2.39-1.39 1.68 1.48-2.39 1.39-1.68-1.48z"/><path class="cls-17" d="M462.4 287.32l2.39-1.39v2.33l-2.16 1.26-.24.13.01-2.33zM456.14 276.49l2.4-1.39.44 2.19-2.4 1.39-.44-2.19z"/><path class="cls-17" d="M454.11 275.31l.25-.14 2.15-1.25 2.03 1.18-2.4 1.39-2.03-1.18zM460.99 282.57l2.4-1.39-.89 1.22-2.39 1.4.88-1.23zM458.05 280.23l2.39-1.39 1.51-.14-2.39 1.39-1.51.14z"/><path class="cls-17" d="M459.56 280.09l2.39-1.39 1.44 2.48-2.4 1.39-1.43-2.48zM450.1 284.76l-.88 1.23 1.43 2.47 1.51-.13a12 12 0 001.47 1.55l.44 2.19 2 1.17.45-1.68a3.8 3.8 0 001.47.15l.23.28 1.27 1.6 1.44-.82-.87-2.24a4 4 0 00.62-1.34l1.14.32.54.14v-2.33l-1.68-1.48c0-.1 0-.19-.07-.29s-.06-.27-.1-.41 0-.14-.05-.21a11.6 11.6 0 00-.39-1.13l.88-1.23-1.43-2.48-1.51.14c-.2-.25-.41-.49-.62-.73l-.07-.07-.24-.24-.1-.1a5.62 5.62 0 00-.44-.41l-.44-2.19-2-1.18-.13.5-.32 1.18a4.4 4.4 0 00-1-.15h-.48l-1.5-1.88-1.44.82.72 1.86.15.38a4 4 0 00-.62 1.33l-1.68-.46v2.33l1.68 1.49a12.15 12.15 0 00.62 2.05zm2.22-2.09v-.32-.4a.83.83 0 010-.15v-.11c0-.04 0-.09.05-.13l.06-.1.06-.12.06-.08.08-.1.07-.07.3-.09a1.72 1.72 0 011.7-.05 3.14 3.14 0 01.37.18 6.11 6.11 0 012.78 4.81v.38a1.81 1.81 0 01-.8 1.41l-.18.08H455.73l-.2-.07-.13-.05a3.18 3.18 0 01-.32-.16l-.27-.17-.08-.06-.08-.06a3.11 3.11 0 01-.28-.23l-.07-.06-.09-.09-.12-.11-.19-.2-.1-.12-.11-.13-.13-.17-.07-.1a2.43 2.43 0 01-.14-.2l-.06-.08a2.75 2.75 0 01-.17-.29v-.05c-.05-.08-.09-.16-.13-.24l-.05-.09-.12-.27-.12-.31a.36.36 0 000-.09c0-.08-.05-.15-.07-.22a.56.56 0 000-.12v-.34a.8.8 0 010-.15 2.07 2.07 0 010-.22v-.2c-.3-.22-.31-.36-.31-.49z"/><path class="cls-9" d="M458 291.71l.23.28-2.15 1.25.45-1.68a3.8 3.8 0 001.47.15zM449.5 279.36l-1.68-.46 2.15-1.25.15.38a4 4 0 00-.62 1.33zM452.35 282.26v-.31a.83.83 0 010-.15v-.11c0-.04 0-.09.05-.13l.06-.1.06-.12.06-.08.08-.1.07-.07.27-.09a1.72 1.72 0 011.7-.05v.69a.38.38 0 000 .1 1.5 1.5 0 000 .2 2.07 2.07 0 000 .22V282.45l.06.2v.12c0 .07.05.14.08.22v.09l.12.31c0 .09.08.18.13.27a.36.36 0 000 .09l.13.24.18.29a.35.35 0 00.05.08l.14.2.08.1.12.17.11.13.11.12.18.2.12.11.09.09.16.14.1.08.17.13.08.06.27.17.25.13h.13a1.81 1.81 0 01-.8 1.41l-.18.08H455.44l-.2-.07-.13-.05h-.07l-.25-.13-.27-.17-.08-.06-.08-.06-.1-.07-.09-.08-.09-.08-.07-.06-.09-.09-.12-.11-.19-.2-.1-.12-.11-.13-.13-.17-.07-.1a2.43 2.43 0 01-.14-.2l-.06-.08a2.75 2.75 0 01-.17-.29v-.05c-.05-.08-.09-.16-.13-.24l-.05-.09-.12-.27-.12-.31a.36.36 0 000-.09c0-.08-.05-.15-.07-.22a.56.56 0 000-.12v-.34a.8.8 0 010-.15 2.07 2.07 0 010-.22v-.2a.31.31 0 000-.1v-.31-.32c0-.11.01-.04.01-.07zM461.85 289.51l.54.14.24-.13.73 1.86-2.4 1.39-.87-2.24 1.76-1.02zM460.71 289.19l1.14.32-1.76 1a4 4 0 00.62-1.32zM453.66 277a4.4 4.4 0 00-1-.15h-.48l1.79-1zM460.65 285.55c0-.13-.06-.27-.1-.41 0-.07 0-.14-.05-.21a11.6 11.6 0 00-.39-1.13l2.39-1.39a.42.42 0 010 .1c0 .06 0 .12.07.17a2.83 2.83 0 00.11.31.14.14 0 000 .06.83.83 0 010 .15c0 .11.08.23.11.34V283.75c0 .04.08.28.11.41V284.45l-2.39 1.39c.19-.1.17-.19.14-.29z"/><path class="cls-9" d="M462.4 287.32l2.39-1.39v2.33l-2.16 1.26-.24.13.01-2.33zM456.14 276.49l2.4-1.39.44 2.19-2.4 1.39-.44-2.19zM460.99 282.57l2.4-1.39-.89 1.22-2.39 1.4.88-1.23zM458.05 280.23l2.39-1.39 1.51-.14-2.39 1.39-1.51.14z"/><path class="cls-24" d="M453.98 275.81l-1.79 1.04-1.5-1.88 2.39-1.39 1.28 1.59-.25.14-.13.5zM458.05 280.23c-.2-.25-.41-.49-.62-.73l-.07-.07-.24-.24-.1-.1a5.62 5.62 0 00-.44-.41l2.4-1.39.43.4.2.2.1.11c.12.12.23.24.34.37l.36.43zM460.72 285.84l2.39-1.39 1.68 1.48-2.39 1.39-1.68-1.48z"/><path class="cls-24" d="M454.11 275.31l.25-.14 2.15-1.25 2.03 1.18-2.4 1.39-2.03-1.18zM459.56 280.09l2.39-1.39 1.44 2.48-2.4 1.39-1.43-2.48z"/><path class="cls-23" d="M434.94 284.61l.07.08zM437.86 284.12l-.21-.11a1.64 1.64 0 01-.22-.14l-.07-.05-.15-.11-.08-.06-.13-.12-.08-.07-.09-.1-.16-.16-.09-.1-.09-.11-.1-.14-.06-.08-.12-.17a.43.43 0 010-.07l-.15-.23-.12-.21v-.07l-.11-.23a2.77 2.77 0 01-.1-.26v-.07l-.06-.19v-.1a.94.94 0 010-.16v-.43-.16-.09-.25-.32a2.2 2.2 0 01.31.15 5.1 5.1 0 012.31 4 3 3 0 010 .32zM433.81 279.86l-.06.06zM435.37 285h.07zM434 279.74l-.07.05zM433.43 280.58v.09zM433.38 280.83v0zM433.58 280.17v.08zM433.49 280.36v.09zM433.69 280l-.05.07zM433.43 276.33zM437.6 278.54l-.06-.06zM434.69 284.35l.15.17zM433.65 276.33zM433.61 282.55v.08zM440.19 283.22a1.54 1.54 0 00-.05-.17 1.54 1.54 0 01.05.17zM437.34 278.28l-.08-.09zM440.33 283.8a1.55 1.55 0 01-.05-.23 1.55 1.55 0 00.05.23zM436.77 285.48zM434.22 283.76a.43.43 0 000-.07.43.43 0 010 .07zM434 283.45zM437.15 285.4zM433.9 283.2v-.07.07zM433.48 282.1v-.11zM433.37 281.51v-.34.26a.22.22 0 010 .08zM433.76 282.91zM433.42 281.86v-.18zM433.55 282.36v-.09.09zM434.4 284l-.06-.09zM436.4 285.45h-.1zM436.59 285.48zM437 285.45zM436.2 285.4h-.16zM435.22 284.87l.08.05c-.08-.05-.15-.12-.23-.18l.08.06zM435.92 285.3l-.26-.13.21.11zM434.6 284.25l-.09-.11z"/><path class="cls-17" d="M438.09 288.68l.18.24-1.78 1 .37-1.39a3.34 3.34 0 001.23.15zM431 278.43l-1.4-.39 1.79-1 .12.32a3.35 3.35 0 00-.51 1.07zM433.38 280.83v-.47a1.17 1.17 0 01.05-.11v-.08l.06-.1.05-.07.06-.08.06-.06.07-.07.07-.05a1.42 1.42 0 011.41 0v1.25a.94.94 0 000 .16v.1l.06.19v.07a2.77 2.77 0 00.1.26l.11.23v.07l.12.21.15.23a.43.43 0 000 .07l.12.17.06.08.1.14.09.11.09.1.16.16.09.1.08.07.13.12.08.06.15.11.07.05a1.64 1.64 0 00.22.14l.21.11h.05a1.48 1.48 0 01-.66 1.17l-.15.07h-1.03l-.12-.05h-.05l-.21-.11-.22-.14h-.07l-.07-.06-.08-.05-.07-.07-.08-.06-.06-.05-.07-.08-.1-.09-.15-.17-.09-.1-.09-.11-.11-.13-.06-.09-.12-.16a.43.43 0 000-.07l-.15-.24a2.12 2.12 0 01-.11-.21v-.07c0-.07-.07-.14-.1-.22l-.1-.25v-.08l-.06-.19v-.09V281.81v-.17a.22.22 0 000-.08v-.26a2.11 2.11 0 010-.26s.11-.18.11-.21zM441.27 286.85l.45.12.2-.11.6 1.54-1.99 1.16-.72-1.86 1.46-.85zM434.73 275.47l-1.48.86-1.25-1.56 1.98-1.15 1.07 1.32-.21.12-.11.41zM440.32 286.59l.95.26-1.46.85a3.25 3.25 0 00.51-1.11z"/><path class="cls-17" d="M434.47 276.46a3.57 3.57 0 00-.82-.13h-.4l1.48-.86zM440.28 283.57l-.09-.35a1.54 1.54 0 00-.05-.17 8.69 8.69 0 00-.32-.94l2-1.16v.09l.06.14.09.26V281.61l.09.29v.07a.3.3 0 000 .1c0 .11.06.23.08.34v.24l-2 1.15a1.55 1.55 0 01.14-.23zM438.11 279.15c-.16-.21-.34-.41-.51-.61l-.06-.06-.2-.2-.08-.09-.37-.34 2-1.15c.12.11.25.22.36.34l.16.17.09.09.27.3c.1.11.2.23.29.35zM440.33 283.8l1.99-1.15 1.39 1.23-1.98 1.16-1.4-1.24z"/><path class="cls-17" d="M441.73 285.04l1.98-1.16v1.94l-1.79 1.04-.2.11.01-1.93zM436.53 276.04l1.99-1.16.36 1.82-1.99 1.16-.36-1.82z"/><path class="cls-17" d="M434.84 275.06l.21-.12 1.78-1.03 1.69.97-1.99 1.16-1.69-.98zM440.56 281.09l1.98-1.16-.73 1.02-1.99 1.16.74-1.02zM438.12 279.14l1.98-1.15 1.26-.11-1.99 1.15-1.25.11z"/><path class="cls-17" d="M439.37 279.03l1.99-1.15 1.18 2.05-1.98 1.16-1.19-2.06z"/><path class="cls-17" d="M431.51 282.91l-.73 1L432 286l1.26-.12a10 10 0 001.22 1.29l.36 1.82 1.69 1 .37-1.39a3.34 3.34 0 001.23.12l.18.24 1.07 1.32 1.19-.68-.72-1.86a3.25 3.25 0 00.51-1.11l.95.26.45.12V285l-1.4-1.24a1.55 1.55 0 01-.05-.23l-.09-.35a1.54 1.54 0 00-.05-.17 8.69 8.69 0 00-.32-.94l.74-1-1.22-2.07-1.26.12c-.16-.21-.34-.41-.51-.61l-.06-.06-.2-.2-.08-.09-.37-.34-.36-1.81-1.69-1-.11.41-.26 1a3.57 3.57 0 00-.82-.13h-.4l-1.25-1.52-1.2.69.6 1.54.12.32a3.35 3.35 0 00-.51 1.11l-1.4-.39V280l1.39 1.23a10.66 10.66 0 00.51 1.68zm1.84-1.74a2.11 2.11 0 010-.26v-.08-.47a1.17 1.17 0 01.05-.11v-.08l.06-.1.05-.07.06-.08.06-.06.07-.07.07-.05a1.42 1.42 0 011.41 0 2.2 2.2 0 01.31.15 5.1 5.1 0 012.31 4 3 3 0 010 .32 1.48 1.48 0 01-.66 1.17l-.15.07h-1.03l-.12-.05-.26-.13-.22-.14h-.07l-.07-.06c-.08-.05-.15-.12-.23-.18l-.06-.05-.07-.08-.1-.09-.15-.17-.09-.1-.09-.11-.11-.13-.06-.09-.12-.16a.43.43 0 000-.07l-.15-.24a2.12 2.12 0 01-.11-.21v-.07c0-.07-.07-.14-.1-.22l-.1-.25v-.08l-.06-.19v-.09V281.9v-.17c0-.05-.27-.45-.27-.56z"/><path class="cls-9" d="M438.09 288.68l.18.24-1.78 1 .37-1.39a3.34 3.34 0 001.23.15zM431 278.43l-1.4-.39 1.79-1 .12.32a3.35 3.35 0 00-.51 1.07zM433.38 280.83v-.47a1.17 1.17 0 01.05-.11v-.08l.06-.1.05-.07.06-.08.06-.06.07-.07.07-.05a1.42 1.42 0 011.41 0v1.25a.94.94 0 000 .16v.1l.06.19v.07a2.77 2.77 0 00.1.26l.11.23v.07l.12.21.15.23a.43.43 0 000 .07l.12.17.06.08.1.14.09.11.09.1.16.16.09.1.08.07.13.12.08.06.15.11.07.05a1.64 1.64 0 00.22.14l.21.11h.05a1.48 1.48 0 01-.66 1.17l-.15.07h-1.03l-.12-.05h-.05l-.21-.11-.22-.14h-.07l-.07-.06-.08-.05-.07-.07-.08-.06-.06-.05-.07-.08-.1-.09-.15-.17-.09-.1-.09-.11-.11-.13-.06-.09-.12-.16a.43.43 0 000-.07l-.15-.24a2.12 2.12 0 01-.11-.21v-.07c0-.07-.07-.14-.1-.22l-.1-.25v-.08l-.06-.19v-.09V281.81v-.17a.22.22 0 000-.08v-.26a2.11 2.11 0 010-.26s.11-.18.11-.21zM441.27 286.85l.45.12.2-.11.6 1.54-1.99 1.16-.72-1.86 1.46-.85zM440.32 286.59l.95.26-1.46.85a3.25 3.25 0 00.51-1.11zM434.47 276.46a3.57 3.57 0 00-.82-.13h-.4l1.48-.86zM440.28 283.57l-.09-.35a1.54 1.54 0 00-.05-.17 8.69 8.69 0 00-.32-.94l2-1.16v.09l.06.14.09.26V281.61l.09.29v.07a.3.3 0 000 .1c0 .11.06.23.08.34v.24l-2 1.15a1.55 1.55 0 01.14-.23z"/><path class="cls-9" d="M441.73 285.04l1.98-1.16v1.94l-1.79 1.04-.2.11.01-1.93zM436.53 276.04l1.99-1.16.36 1.82-1.99 1.16-.36-1.82zM440.56 281.09l1.98-1.16-.73 1.02-1.99 1.16.74-1.02zM438.12 279.14l1.98-1.15 1.26-.11-1.99 1.15-1.25.11z"/><path class="cls-24" d="M434.73 275.47l-1.48.86-1.25-1.56 1.98-1.15 1.07 1.32-.21.12-.11.41zM438.11 279.15c-.16-.21-.34-.41-.51-.61l-.06-.06-.2-.2-.08-.09-.37-.34 2-1.15c.12.11.25.22.36.34l.16.17.09.09.27.3c.1.11.2.23.29.35zM440.33 283.8l1.99-1.15 1.39 1.23-1.98 1.16-1.4-1.24z"/><path class="cls-24" d="M434.84 275.06l.21-.12 1.78-1.03 1.69.97-1.99 1.16-1.69-.98zM439.37 279.03l1.99-1.15 1.18 2.05-1.98 1.16-1.19-2.06z"/><path class="cls-10" d="M375.24 318.26c-5.88 4.08-12.49 6.9-17.4 12.37-9.16 10.21-9.37 26.65-2.18 38.33s20.58 18.7 34.21 20.31c14.29 1.73 29.3-2.27 40.51-11.27s18.35-23.12 18.35-37.52-7.38-28.73-19.44-36.59c-11-7.18-26.8-9.22-37.84-1-5.58 4.15-9.3 10.27-14.87 14.43-.44.31-.89.68-1.34.94z"/><path class="cls-8" d="M375.24 318.26c-5.88 4.08-12.49 6.9-17.4 12.37-9.16 10.21-9.37 26.65-2.18 38.33s20.58 18.7 34.21 20.31c14.29 1.73 29.3-2.27 40.51-11.27s18.35-23.12 18.35-37.52-7.38-28.73-19.44-36.59c-11-7.18-26.8-9.22-37.84-1-5.58 4.15-9.3 10.27-14.87 14.43-.44.31-.89.68-1.34.94z"/><path class="cls-4" d="M377.63 378.1v-.29a15.46 15.46 0 0112.53-12.88 48.69 48.69 0 0016-6.14c3.51-2.12 6.82-4.72 10.76-5.87a17.53 17.53 0 0111.59.67 13.44 13.44 0 00-13.5-3.43c3.13-4.8 5.89-10 7-15.6s.31-11.8-3.08-16.42a16.53 16.53 0 00-25.52-1.37c-3.36 3.68-5.25 8.86-7.46 13.32-1.59 3.21-3.23 6.49-5.84 8.94-3.94 3.69-9.62 5-13.7 8.55-4.64 4-6.64 10.4-6.66 16.52a48.4 48.4 0 001.79 12.22 46.62 46.62 0 0016.77 10.25 18.23 18.23 0 01-.68-8.47z"/><path class="cls-14" d="M441.05 338.49a42 42 0 00-35.84-40.79 29.26 29.26 0 00-4 .68A41 41 0 01440 338.51c.26 13.39-6.3 27.05-17.53 36.53-8.81 7.42-20.51 12.35-33.38 14.12l.83.11c1.15.13 2.31.23 3.48.29 11.42-2.22 21.77-6.93 29.78-13.68 11.44-9.69 18.14-23.67 17.87-37.39z"/><path class="cls-7" d="M362.66 373.63a40.46 40.46 0 01.71 6.68l1.59-.6a4.1 4.1 0 014.41 1l.07.08a1.6 1.6 0 002.21.1 1.64 1.64 0 00.55-1.15l.21-6.75z"/><path class="cls-25" d="M368.78 398.71c-3.29 3.53-9.35 6.6-13.75 3.6l.49 1.12c4.4 3 10.46-.07 13.75-3.6s1.16-5.95 4.12-9.08A10.77 10.77 0 00376 387c-.13-.34-.26-.78-.41-1.28a13.55 13.55 0 01-2.64 4c-3.01 3.04-.88 5.47-4.17 8.99z"/><path class="cls-21" d="M373.92 382a6.24 6.24 0 01-1-2.4 1.42 1.42 0 00-.65-1v1.14a1.64 1.64 0 01-.55 1.15 1.6 1.6 0 01-2.21-.1l-.07-.08a4.1 4.1 0 00-4.41-1l-1.61.61a1.25 1.25 0 00-.8 1.19c.1 4.61-2.06 10.74-4.32 14.11-2.32 1-4.33 4.13-3.31 6.46l.11.23c4.4 3 10.46-.07 13.75-3.6s1.16-5.95 4.12-9.08a13.55 13.55 0 002.64-4 14.37 14.37 0 00-1.69-3.63z"/><path class="cls-14" d="M367.48 388.66a.56.56 0 00.52-1 6.44 6.44 0 00-6.33 0c-.09.36-.2.72-.31 1.08a6.2 6.2 0 016.12-.08zM368.29 386.16a.56.56 0 00.52-1 6.75 6.75 0 00-6.58.06c-.07.37-.15.75-.23 1.13a6.26 6.26 0 016.29-.19zM366.59 391.14a.56.56 0 00.52-1 6.44 6.44 0 00-6.19-.06c-.14.39-.29.78-.44 1.15a6.21 6.21 0 016.11-.09zM358.23 395.62c-2.32 1-4.33 4.13-3.31 6.46l.11.23c4.33 3 10.27 0 13.6-3.44-2.77-5.43-8.57-4.08-10.4-3.25zM365.62 393.57a.56.56 0 00.74-.26.55.55 0 00-.23-.74 6.41 6.41 0 00-6.2-.06c-.19.43-.4.85-.6 1.24a6.26 6.26 0 016.29-.18z"/><path class="cls-7" d="M355.74 387.05a41.68 41.68 0 01-2 6.4l1.69.1a4.1 4.1 0 013.63 2.69v.11a1.61 1.61 0 002 1 1.63 1.63 0 001-.83l2.92-6.09z"/><path class="cls-25" d="M351.22 412.47c-4.44 1.89-11.22 2.26-14-2.26v1.22c2.82 4.53 9.6 4.16 14 2.27s3.46-5 7.43-6.65a10.76 10.76 0 003.88-2.45c0-.36.07-.81.13-1.33a13.53 13.53 0 01-4 2.55c-3.98 1.67-3.01 4.76-7.44 6.65z"/><path class="cls-21" d="M362.66 399.25a6.39 6.39 0 010-2.62 1.41 1.41 0 00-.2-1.16l-.49 1a1.61 1.61 0 01-2.95-.15v-.11a4.1 4.1 0 00-3.63-2.69l-1.72-.1a1.23 1.23 0 00-1.21.76c-1.77 4.27-6.22 9-9.65 11.18-2.51-.06-5.63 2-5.63 4.57v.25c2.82 4.52 9.6 4.15 14 2.26s3.46-5 7.43-6.65a13.53 13.53 0 004-2.55 14.09 14.09 0 00.05-3.99z"/><path class="cls-14" d="M354.08 402.75a.58.58 0 00.79.07.57.57 0 00.13-.82 6.41 6.41 0 00-5.79-2.54c-.23.29-.48.58-.72.86a6.18 6.18 0 015.59 2.43zM355.83 400.79a.57.57 0 00.88-.71 6.76 6.76 0 00-6-2.6c-.21.31-.44.63-.67.94a6.25 6.25 0 015.79 2.37zM352.27 404.66a.56.56 0 00.87-.71 6.41 6.41 0 00-5.63-2.55l-.87.88a6.2 6.2 0 015.63 2.38zM342.81 405.39c-2.51-.06-5.63 2-5.63 4.57v.25c2.78 4.46 9.4 4.16 13.83 2.34-.34-6.09-6.19-7.19-8.2-7.16zM350.4 406.48a.56.56 0 00.87-.7 6.41 6.41 0 00-5.64-2.55c-.36.31-.71.61-1.06.89a6.27 6.27 0 015.83 2.36z"/><path class="cls-10" d="M381.78 329.4l-22.19 12.36a11 11 0 00-5.46 11.61l4.31 23.19-3.53 11.21c3 4.09 10 4.3 10 4.3 3.9-7.83 6.76-11.15 9-17.71s3.69-11.08 3.69-11.08l18.43-5a21.82 21.82 0 0016-18.58c.31-2.78.33-4.68.33-4.68z"/><path class="cls-9" d="M382 335.63a10.45 10.45 0 002.48 6.76l-15.66 9.8a11.25 11.25 0 00-4.79 6.25l-5.54 18.12 5-20.18a9.09 9.09 0 014.07-5.58l14.44-8.94a7.45 7.45 0 010-6.23z"/><path class="cls-7" d="M365.21 305.42l-3.1 3c-3.19-4.07-7.47-6.82-11.22-12.53-1.07-1.36-1-4.09-1.7-5.48-.57-1.09-1.57-2.72-2-3.64a.6.6 0 00-.89-.27c-1.06.78-.5 2.62.06 4.57.66 2.28-2.78-.81-3.24-1.33-2.18-2-4.05-7-5.54-6.5s-.31 3-.31 3c-1.36.29-.84 2.47-.84 2.47-.81 1.42-.58 3.62 1.08 5.67 1.2 1.48 4.46 3.52 6.16 4.52a5.61 5.61 0 011.76 1.67l10.66 15.83a6.46 6.46 0 009.23 1.57l5.79-4.33z"/><path class="cls-3" d="M383.25 291.44c-5.91-.26-13.92 9.32-18.43 13.84.35 5.51 6.29 9.14 6.29 9.14a129.53 129.53 0 0012.14-9.49z"/><path class="cls-26" d="M383.25 291.44c-5.91-.26-13.92 9.32-18.43 13.84.35 5.51 6.29 9.14 6.29 9.14a129.53 129.53 0 0012.14-9.49z"/><path class="cls-3" d="M412.69 336.72c-3.93 3.78-22.83 4.47-32.48-4.71.93-6.48.62-13.43 0-20.29s-4.63-18.88 3-20.28c10.23-2 16.92-1.84 23.76 2 7.34 12.18 6.34 30.39 5.72 43.28z"/><path class="cls-3" d="M412.69 336.72c-3.93 3.78-22.83 4.47-32.48-4.71.93-6.48.62-13.43 0-20.29s-4.63-18.88 3-20.28c10.23-2 16.92-1.84 23.76 2 7.34 12.18 6.34 30.39 5.72 43.28z"/><path class="cls-6" d="M412.69 336.72c-3.93 3.78-22.83 4.47-32.48-4.71.93-6.48.62-13.43 0-20.29s-4.63-18.88 3-20.28c10.23-2 16.92-1.84 23.76 2 7.34 12.18 6.34 30.39 5.72 43.28z"/><path class="cls-7" d="M402.12 276a2.77 2.77 0 00-1.37-1.43 2.26 2.26 0 00-.41-.15 2.55 2.55 0 00-2.28.76 4.44 4.44 0 00-1.11 2.2 17.39 17.39 0 00-.27 2.49 30.71 30.71 0 01-.69 4.38 5.57 5.57 0 01-2.84 3.71l-.09.05a17.23 17.23 0 01-6.63 1.76v2.51c-1.83 2.49-2.34 7.24 2.48 5.82s7.95-4.62 7.95-7.77c0-1.33.06-3 .1-4.56 0-2.06.08-3.78.08-3.78a2.69 2.69 0 001.76.92 2.62 2.62 0 00.93 0 3.49 3.49 0 002.05-1.76 6.35 6.35 0 00.66-2.68 5.56 5.56 0 00-.32-2.47z"/><path class="cls-21" d="M400.55 267.29a5.9 5.9 0 00-3.78-2L377 267.11c-2.28 4.84-.46 8-.46 8-.31 7.37-.56 12.06 2.68 13.61a15.26 15.26 0 007.22 1 17.23 17.23 0 006.63-1.76l.1-.06a5.59 5.59 0 002.84-3.72 32.13 32.13 0 00.68-4.36 17.39 17.39 0 01.27-2.49 4.44 4.44 0 011.11-2.2 2.55 2.55 0 012.28-.76 2.26 2.26 0 01.41.15c.55-3.25.72-6.08-.21-7.23z"/><path class="cls-7" d="M393.31 267.85a6.84 6.84 0 00.26 4.14 30.32 30.32 0 011.26 4 6.53 6.53 0 01-.55 4.06 4.77 4.77 0 01-3.15 2.51c-2.12.45-4.2-.79-6.33-1.2a8.87 8.87 0 00-5.95 1.05 1 1 0 01-1.56-.82c-.25-4.24-.25-10.89.38-14z"/><path class="cls-21" d="M378 264l-2.46-1.71a5.21 5.21 0 00.94 4.84 7.8 7.8 0 004.33 2.55 16.45 16.45 0 005.1.23 37.54 37.54 0 007.36-1.34 5.9 5.9 0 002.89-1.52 3.82 3.82 0 00.15-4.5 5.78 5.78 0 00-4.07-2.36 15.57 15.57 0 00-4.89.39 15 15 0 01-4.89.35 5.12 5.12 0 01-4-2.61c-1.33 2.25-.46 5.68-.46 5.68z"/><path class="cls-27" d="M384.21 275.37l-3.6 4.37 3.3 1.17.3-5.54zM386.94 283.08l-2.78.86a1.71 1.71 0 001.87.86 1.54 1.54 0 00.91-1.72z"/><path class="cls-6" d="M386.94 283.08l-2.78.86a1.71 1.71 0 001.87.86 1.54 1.54 0 00.91-1.72z"/><path class="cls-27" d="M385.12 284.74a1.51 1.51 0 00.91.06 1.4 1.4 0 00.91-1.26 1.69 1.69 0 00-1.08.2 1.66 1.66 0 00-.74 1z"/><path class="cls-25" d="M389.12 276.33a1 1 0 11-2-.11 1 1 0 012 .11zM380.83 275.56a1 1 0 11-.94-1 1 1 0 01.94 1zM380.08 271.58L377.8 273a1.41 1.41 0 01.52-1.53 1.66 1.66 0 011.76.11zM388.56 271.91l2.11 1.64a1.42 1.42 0 00-.35-1.58 1.66 1.66 0 00-1.76-.06z"/><path class="cls-9" d="M394.39 287.86a6.21 6.21 0 001.15-2.4 5.56 5.56 0 01-2.39 2.48l-.09.05a17.23 17.23 0 01-6.63 1.76v1.69a16.69 16.69 0 003.91-.82 8.81 8.81 0 004.05-2.76z"/><path class="cls-17" d="M397.43 344.87a.72.72 0 010 .29 1 1 0 01-.12.23 1.07 1.07 0 01-.2.23 1.61 1.61 0 01-.3.21l-16.24 9.44a2.37 2.37 0 01-.46.2l-.18.06-.24.06-.29.05h-.98l-.38-.07h-.06l-.33-.1h-.06a3 3 0 01-.36-.17l-26.83-15.44a1.89 1.89 0 01-.31-.22l-.07-.08a.7.7 0 01-.14-.16.53.53 0 01-.06-.1 1 1 0 01-.07-.15.23.23 0 010-.11.8.8 0 010-.15v.95a.8.8 0 000 .15.23.23 0 000 .11 1 1 0 00.07.15.53.53 0 00.06.1.7.7 0 00.14.16l.07.08a1.41 1.41 0 00.31.21l26.78 15.47a3 3 0 00.36.17h.06l.33.1h.07l.38.07h.98l.29-.05.24-.06.18-.06a2.37 2.37 0 00.46-.2l16.24-9.44a1.61 1.61 0 00.3-.21 1.07 1.07 0 00.2-.23 1 1 0 00.12-.23.75.75 0 000-.21v-1z"/><path class="cls-9" d="M397.43 344.87a.72.72 0 010 .29 1 1 0 01-.12.23 1.07 1.07 0 01-.2.23 1.61 1.61 0 01-.3.21l-16.24 9.44a2.37 2.37 0 01-.46.2l-.18.06-.24.06-.29.05h-.98l-.38-.07h-.06l-.33-.1h-.06a3 3 0 01-.36-.17l-26.83-15.44a1.89 1.89 0 01-.31-.22l-.07-.08a.7.7 0 01-.14-.16.53.53 0 01-.06-.1 1 1 0 01-.07-.15.23.23 0 010-.11.8.8 0 010-.15v.95a.8.8 0 000 .15.23.23 0 000 .11 1 1 0 00.07.15.53.53 0 00.06.1.7.7 0 00.14.16l.07.08a1.41 1.41 0 00.31.21l26.78 15.47a3 3 0 00.36.17h.06l.33.1h.07l.38.07h.98l.29-.05.24-.06.18-.06a2.37 2.37 0 00.46-.2l16.24-9.44a1.61 1.61 0 00.3-.21 1.07 1.07 0 00.2-.23 1 1 0 00.12-.23.75.75 0 000-.21v-1z"/><path class="cls-17" d="M349.75 339.15a1 1 0 00.07.15.53.53 0 00.06.1.7.7 0 00.14.16l.07.08a1.89 1.89 0 00.31.22l26.78 15.46a3 3 0 00.36.17h.06l.33.1h.07l.38.07h.98l.29-.05.24-.06.18-.06a2.37 2.37 0 00.46-.2l16.24-9.44a1.61 1.61 0 00.3-.21 1.07 1.07 0 00.2-.23 1 1 0 00.12-.23.72.72 0 000-.29 1.2 1.2 0 00-.69-.92L370 328.49a3.62 3.62 0 00-3.33 0l-16.24 9.43a1.18 1.18 0 00-.69 1 .8.8 0 000 .15.23.23 0 00.01.08z"/><path class="cls-17" d="M352 338.89l26 15h.16l.2.06h.52a1.23 1.23 0 00.26 0 .51.51 0 00.17 0l.22-.05a1.42 1.42 0 00.18-.08l8.37-4.86-26.88-15.43z"/><path class="cls-25" d="M378.88 354.09z"/><path class="cls-17" d="M376.73 334.75l-4.89 2.88a.5.5 0 000 .86l7.32 4.23a.83.83 0 00.82 0l4.89-2.88a.49.49 0 000-.85l-7.32-4.23a.83.83 0 00-.82-.01z"/><path class="cls-5" d="M352 338.89l26 15h.16l.2.06h.52a1.23 1.23 0 00.26 0 .51.51 0 00.17 0l.22-.05a1.42 1.42 0 00.18-.08l8.37-4.86-26.88-15.43zM376.73 334.75l-4.89 2.88a.5.5 0 000 .86l7.32 4.23a.83.83 0 00.82 0l4.89-2.88a.49.49 0 000-.85l-7.32-4.23a.83.83 0 00-.82-.01z"/><path class="cls-17" d="M378.69 354.36l-2.77-17.63a3.24 3.24 0 00-1.58-2.31l-27-15.68a.8.8 0 00-.72-.05l-.62.31.22.08a.77.77 0 00-.07.48l2.77 17.63a3.24 3.24 0 001.58 2.31l27 15.68.17.07v.26l.62-.31a.8.8 0 00.4-.84z"/><path class="cls-6" d="M378.69 354.36l-2.77-17.63a3.24 3.24 0 00-1.58-2.31l-27-15.68a.8.8 0 00-.72-.05l-.62.31.22.08a.77.77 0 00-.07.48l2.77 17.63a3.24 3.24 0 001.58 2.31l27 15.68.17.07v.26l.62-.31a.8.8 0 00.4-.84z"/><path class="cls-17" d="M373.8 334.69l-27-15.68a.82.82 0 00-1.22.83l2.78 17.63a3.24 3.24 0 001.58 2.31l27 15.68a.81.81 0 001.21-.83L375.38 337a3.29 3.29 0 00-1.58-2.31z"/><path class="cls-14" d="M360.73 335.14a6 6 0 012.67 3.86c.18 1.38-.73 1.89-2 1.13a6 6 0 01-2.67-3.85c-.22-1.38.7-1.89 2-1.14z"/><path class="cls-7" d="M405.82 315.25l2.43 8.35-14.88 10.57-5 2.1a7.87 7.87 0 00-3.32 2.64l-4.05 5.64c-.45.95 1.67 2.49 2.69 2.75a3.66 3.66 0 003.38-.84l3.16-2.89.86-.3a13.19 13.19 0 006.33-4.75l17.45-6.77a6.69 6.69 0 004-8L416 313z"/><path class="cls-3" d="M401.67 304.07L406 317c7 .49 10.29-1.87 11.26-4-3.68-16.76-6.12-19.54-10.92-19.89s-4.67 10.96-4.67 10.96z"/><path class="cls-26" d="M401.67 304.07L406 317c7 .49 10.29-1.87 11.26-4-3.68-16.76-6.12-19.54-10.92-19.89s-4.67 10.96-4.67 10.96z"/><path class="cls-10" d="M346.22 326.09h-.07l.06.06z"/><path class="cls-25" d="M236 434.54a5.47 5.47 0 01-3.92 2.37 18.1 18.1 0 01-5.38-.35 35.44 35.44 0 00-8-.2 44.07 44.07 0 01-5 .36 8 8 0 01-4.7-1.49 4.76 4.76 0 01-1.76-3 4.51 4.51 0 001.76 4 7.9 7.9 0 004.7 1.49 41.88 41.88 0 005-.36 36 36 0 018 .21c1.79.25 3.73.76 5.51.47a5.47 5.47 0 003.92-2.37z"/><path class="cls-14" d="M216.53 431.36c1.5 0 .95-2.22 2.37-3.7h-1.74c-1.28 1.88-1.64 3.7-.63 3.7zM219.64 431.25c1.51 0 1.12-2.65 2.6-4.19a9.27 9.27 0 01-1 .29 8.72 8.72 0 01-.89.16c-1.35 1.87-1.73 3.74-.71 3.74z"/><path class="cls-10" d="M234.48 426.18a2 2 0 00-.78-1.23l-8.1-.2a7 7 0 01-3.36 2.31c-1.48 1.54-1.09 4.19-2.6 4.19-1 0-.64-1.87.68-3.74-.47.07-.94.12-1.42.15-1.42 1.48-.87 3.7-2.37 3.7-1 0-.65-1.82.63-3.66H216c-.34 0-.69 0-1-.06-3 2.36-3.24 4.91-2.85 8.92a10.07 10.07 0 001.55.17 44.07 44.07 0 005-.36 35.44 35.44 0 018 .2 18.1 18.1 0 005.38.35 5.47 5.47 0 003.92-2.37z"/><path class="cls-14" d="M215 427.63a12.79 12.79 0 00-4.05 0 4.83 4.83 0 00-3.65 3.17 3.62 3.62 0 00-.06 1.43 4.76 4.76 0 001.76 3 7.06 7.06 0 003.15 1.32c-.4-4.01-.15-6.55 2.85-8.92z"/><path class="cls-28" d="M225.37 422.44v3.91A1.6 1.6 0 00227 428h4.09a2.64 2.64 0 002.63-2.54l.1-3z"/><path class="cls-25" d="M252.37 420.71a3 3 0 01-2.46 1.72 5.17 5.17 0 01-3.11-.77c-1.4-.89-2-2.29-2.91-3.56a21.67 21.67 0 00-3.39-3.31 11.3 11.3 0 01-3.24-3.75 5 5 0 01-.38-1.38 5 5 0 00.38 2.64 11.44 11.44 0 003.24 3.76 20.81 20.81 0 013.39 3.31c1 1.26 1.51 2.67 2.91 3.56a5.16 5.16 0 003.11.76 3 3 0 002.46-1.72 6.57 6.57 0 00.15-2.17 2.6 2.6 0 01-.15.91z"/><path class="cls-14" d="M243.17 412.14a1 1 0 00-.2.67.69.69 0 00.44.5 1 1 0 00.91-.24 4.55 4.55 0 00.63-.75 4.8 4.8 0 012.05-1.52 4.44 4.44 0 011.24-.27l-1-.93a4.94 4.94 0 00-1.85.46 5 5 0 00-2.22 2.08z"/><path class="cls-14" d="M243.38 408.92a5.17 5.17 0 00-2.26 2.08 1.1 1.1 0 00-.2.67.69.69 0 00.45.5 1 1 0 00.91-.23 4.63 4.63 0 00.63-.76 4.72 4.72 0 014.13-1.79l-1-.91a5.09 5.09 0 00-2.66.44z"/><path class="cls-14" d="M245.4 407.9a10.54 10.54 0 00-3.18-2.12 4.24 4.24 0 00-4.37.6 3.8 3.8 0 00-1 3.28 5 5 0 00.38 1.38 7.14 7.14 0 001 1.59c.43-3.49 3.46-5.12 7.17-4.73z"/><path class="cls-10" d="M252.45 417.28a7.22 7.22 0 00-.79-3.41l-2-2.06-1.41-1.28a4.44 4.44 0 00-1.24.27 4.8 4.8 0 00-2.09 1.52 4.55 4.55 0 01-.63.75 1 1 0 01-.91.24.69.69 0 01-.44-.5 1 1 0 01.2-.67 5 5 0 012.25-2.08 4.94 4.94 0 011.85-.46l-.23-.21a4.72 4.72 0 00-4.13 1.79 4.63 4.63 0 01-.63.76 1 1 0 01-.91.23.69.69 0 01-.45-.5 1.1 1.1 0 01.2-.67 5.17 5.17 0 012.26-2.08 5.09 5.09 0 012.66-.44c-.19-.19-.4-.37-.6-.55-3.71-.39-6.74 1.24-7.13 4.73a16.27 16.27 0 002.23 2.16 21.67 21.67 0 013.39 3.31c1 1.27 1.51 2.67 2.91 3.56a5.17 5.17 0 003.11.77 3 3 0 002.46-1.72 2.6 2.6 0 00.15-.91 24.11 24.11 0 00-.08-2.55z"/><path class="cls-28" d="M245.34 411.11l.23 4.19c2.65 1.53 5.43.7 6.36-.27l.17-3.92zM250.55 320.56a3.83 3.83 0 01-.4-1.44l-.22-3.6-25.62 1.65c-.34 1.8-.69 4-1 6.49a38.1 38.1 0 0027.24-3.1z"/><path class="cls-28" d="M250.05 306.05l5.46 10.55-5 8.3 5.48 8.67 8.28-12.85a7.27 7.27 0 00.85-5.94 101.16 101.16 0 00-5.38-14.63z"/><path class="cls-29" d="M245.71 285.69c6.28-1.17 9.87.92 15.18 15.13-2.17 4.86-11.36 6.65-11.36 6.65z"/><path class="cls-14" d="M234 287.36l-6.85 1.35c-1.52 2.77-3.06 5.37-4.58 8.15-1.14 2.08-2.31 4.31-2.23 6.68a6.83 6.83 0 004.11 5.91l-.79 9.36c10.76 3.29 23.92.4 26.81-2.09.85-3.92 1.61-8.1 2.46-12A41.38 41.38 0 00254 297a13.65 13.65 0 00-1.81-7.5v-.07a8.39 8.39 0 00-8.42-3.61z"/><path class="cls-10" d="M251 321.22a4.46 4.46 0 01-.4-.66 38.1 38.1 0 01-27.26 3.1c-1.93 14.37-3.59 38.71-2.57 54.77.84 18.69 4.28 45.16 4.28 45.16 4.49 1.34 7.85.52 9.13-.45 1.49-18.54 4.78-31.25 2.24-43.52 1.69-8.57 2.79-19.34 2.79-19.34l1.3 19 4.38 33.29a7.88 7.88 0 007.88-.4c3.19-19 4.38-31.94 1.59-41.39 4.21-31.29 4.43-39.29-3.36-49.56z"/><path class="cls-6" d="M241.05 356.54l2.35-9.86a13.87 13.87 0 009.28-6 18.87 18.87 0 01-11.38 4l-2.14 15.6.46 6.67.18-2.42a50 50 0 011.25-7.99z"/><path class="cls-28" d="M183 276.07l6.91 17.85a7.11 7.11 0 005.41 4.45l11.8 2.06a10.5 10.5 0 002.6-4.91 10.64 10.64 0 00-.51-6.16 55.5 55.5 0 01-10.62-1.17s-7.46-9.06-10.57-13.74l2.22-7.36a2.52 2.52 0 00-.23-2l-1.24-2.09a2.57 2.57 0 00-1.38-1.13l-1.72-.59a3 3 0 00-2.38.18l-2.62 1.37a1 1 0 00-.54.91 1 1 0 00.54.88l1 .51 1.36 2.3a7.26 7.26 0 00-.03 8.64z"/><path class="cls-29" d="M226 288.58c-4.25.2-10.62.9-16.87.78a10.64 10.64 0 01.51 6.16 10.5 10.5 0 01-2.6 4.91L221.8 303a6.32 6.32 0 007.11-4.67c.46-1.86 1-3.43 1.24-5.24a4 4 0 00-4.15-4.51z"/><path class="cls-21" d="M225.6 268.93a11.9 11.9 0 01-1.34-6.31 6.82 6.82 0 013.31-5.34 4.83 4.83 0 015.93 1 11 11 0 0116.26 10.54c-.15 2.27-1 4.5-.72 6.76.15 1.33.67 2.68.32 4a4.13 4.13 0 01-2.15 2.44c-1 .51-3.31.38-4.4.61-3.35 3-7.54 1.9-10.21-.82s-7-12.88-7-12.88z"/><path fill="#804040" d="M224.91 271.95l-2.09 3.63 2.29.84-.2-4.47z"/><path class="cls-6" d="M225.11 276.42l-.2-4.47"/><path class="cls-28" d="M224.67 270.33c.34-3.18 1.27-6.18 3.34-7.71A17.15 17.15 0 00230.4 274a5 5 0 011.54-2.73 2.89 2.89 0 013-.63 3 3 0 011.49 1.63 3.86 3.86 0 01-4.83 5.1 7.4 7.4 0 005.7 5.78 9.57 9.57 0 005.54-.52l.86 4.29c-3.49 3.72-9.46 1.22-9.46 1.22l-.79-4.22c-6.86.41-7.5.29-8.26-3.49a36.82 36.82 0 01-.52-10.1z"/><path class="cls-6" d="M239.88 265.71a12.08 12.08 0 015.47-6.53 11.52 11.52 0 014.41 9.68c-.15 2.27-1 4.5-.72 6.76.15 1.33.67 2.68.32 4a4.13 4.13 0 01-2.15 2.44c-1 .51-3.31.38-4.4.61l-.44.36a33.34 33.34 0 01-2.72-7 17.83 17.83 0 01.23-10.32z"/><path class="cls-21" d="M241.79 263.33a8.75 8.75 0 0116.68-.21c2.08 6.27-3.23 12.94-2.07 19.44.42 2.34 1.66 4.47 2.08 6.82a10.1 10.1 0 01-8.71 11.82c1.49-1.64 1.51-4.18.66-6.23a28 28 0 00-3.67-5.53c-5.27-7.23-7.57-17.55-4.97-26.11z"/><path class="cls-23" d="M0 0h563.43v563.43H0z"/></g></g></svg>