<svg height="512pt" viewBox="-43 0 512 512" width="512pt" xmlns="http://www.w3.org/2000/svg"><path d="m368 512h-309.332031c-32.40625 0-58.667969-26.261719-58.667969-58.667969v-394.664062c0-32.40625 26.261719-58.667969 58.667969-58.667969h309.332031c32.40625 0 58.667969 26.261719 58.667969 58.667969v394.664062c0 32.40625-26.261719 58.667969-58.667969 58.667969zm0 0" fill="#eceff1"/><g fill="#607d8b"><path d="m330.667969 426.667969h-21.335938c-17.640625 0-32-14.359375-32-32v-64c0-17.644531 14.359375-32 32-32h21.335938c17.640625 0 32 14.355469 32 32v64c0 17.640625-14.359375 32-32 32zm-21.335938-106.667969c-5.867187 0-10.664062 4.800781-10.664062 10.667969v64c0 5.867187 4.796875 10.664062 10.664062 10.664062h21.335938c5.867187 0 10.664062-4.796875 10.664062-10.664062v-64c0-5.867188-4.796875-10.667969-10.664062-10.667969zm0 0"/><path d="m224 426.667969h-42.667969c-17.640625 0-32-14.359375-32-32v-64c0-17.644531 14.359375-32 32-32h42.667969c5.886719 0 10.667969 4.777343 10.667969 10.664062 0 5.890625-4.78125 10.667969-10.667969 10.667969h-42.667969c-5.867187 0-10.664062 4.800781-10.664062 10.667969v64c0 5.867187 4.796875 10.664062 10.664062 10.664062h42.667969c5.886719 0 10.667969 4.78125 10.667969 10.667969s-4.78125 10.667969-10.667969 10.667969zm0 0"/><path d="m96 426.667969c-5.886719 0-10.667969-4.78125-10.667969-10.667969v-106.667969c0-5.886719 4.78125-10.664062 10.667969-10.664062s10.667969 4.777343 10.667969 10.664062v106.667969c0 5.886719-4.78125 10.667969-10.667969 10.667969zm0 0"/></g></svg>