<svg xmlns="http://www.w3.org/2000/svg" viewBox="0 0 233 233"><defs><style>.cls-1{fill:none;}.cls-2{fill:#b91bd1;}</style></defs><title>Recurso 11</title><g id="Capa_2" data-name="Capa 2"><g id="Capa_1-2" data-name="Capa 1"><path class="cls-1" d="M227,6V227H6V6H227m6-6H0V233H233V0Z"/><path class="cls-2" d="M204.14,138.43V111.91h-83V93.13h28.13V27.7H83.78V93.13h28.13v18.78h-83v28H.75V205.3H66.18V139.87H38.05V121.09h73.86v18.06H83.78v65.43h65.44V139.15H121.09V121.09H195v17.34H166.82v65.43h65.43V138.43ZM93,36.89H140V84H93ZM57,196.11H9.94V149.05H57Zm83-.71H93V148.34H140Zm83-.72H176V147.62h47.06Z"/></g></g></svg>