<svg xmlns="http://www.w3.org/2000/svg" viewBox="0 0 233 233"><defs><style>.cls-1{fill:#b91bd1;stroke:#b91bd1;stroke-miterlimit:10;stroke-width:5px;}.cls-2{fill:none;}</style></defs><title>Recurso 26</title><g id="Capa_2" data-name="Capa 2"><g id="Capa_1-2" data-name="Capa 1"><path class="cls-1" d="M197.83,35.17V197.83H35.17V35.17H197.83m4.41-4.41H30.76V202.24H202.24V30.76Z"/><polygon class="cls-1" points="108.34 80.07 85.94 112.7 63.76 80.31 59.84 82.98 83.06 116.89 59.61 151.04 63.52 153.72 85.93 121.09 108.11 153.48 112.02 150.8 88.81 116.9 112.25 82.75 108.34 80.07"/><path class="cls-1" d="M171.3,142l.43-59.37-4.74,0-.22,29.68A24.19,24.19,0,0,0,146.61,101C133,101,122,112.81,122,127.29s11,26.27,24.61,26.27a24.13,24.13,0,0,0,19.94-10.9V143l.18.44c.14.33,3.45,8.17,11.45,8.74l.34-4.73C174.22,147.11,171.93,143.25,171.3,142Zm-24.69,6.83c-11,0-19.86-9.66-19.86-21.53s8.91-21.52,19.86-21.52,19.87,9.66,19.87,21.52S157.57,148.82,146.61,148.82Z"/><path class="cls-2" d="M227,6V227H6V6H227m6-6H0V233H233V0Z"/></g></g></svg>