<svg xmlns="http://www.w3.org/2000/svg" viewBox="0 0 233 233"><defs><style>.cls-1{fill:#5855ff;}.cls-2{fill:none;}</style></defs><title>Recurso 17</title><g id="Capa_2" data-name="Capa 2"><g id="Capa_1-2" data-name="Capa 1"><path class="cls-1" d="M57.09,122.54l-3.61,18.14-5.71-18.51a4.45,4.45,0,0,0-8.65.23l-5.66,18.3-3.58-18.13a4.46,4.46,0,1,0-8.77,1.64s6.58,33.14,6.65,33.35A5.21,5.21,0,0,0,32.67,161h.09a5.13,5.13,0,0,0,4.85-3.56l0-.09,5.84-18.88,5.82,18.89a4.27,4.27,0,0,0,.24.61,5.16,5.16,0,0,0,4.72,3h.06a5.22,5.22,0,0,0,4.88-3.56c0-.18,6.63-33.17,6.63-33.17a4.46,4.46,0,0,0-8.74-1.74Z"/><path class="cls-1" d="M122,124.28a4.52,4.52,0,0,0-6.07-5.06,4,4,0,0,0-2.62,3.06l-3.66,18.42-5.82-18.89a4,4,0,0,0-3-2.83,4.54,4.54,0,0,0-5.5,3.42l-5.66,18.29L86,122.23a4,4,0,0,0-2.61-3.07,4.52,4.52,0,0,0-6.08,5S83.9,157.35,84,157.56a5.21,5.21,0,0,0,4.9,3.45h.46a4.63,4.63,0,0,0,4.36-3.21l.14-.44,5.85-18.88,5.82,18.89a6.87,6.87,0,0,0,.35.87,4.67,4.67,0,0,0,4.29,2.77h.39a5.21,5.21,0,0,0,4.87-3.56c.06-.18,6.64-33.17,6.64-33.17Z"/><path class="cls-1" d="M145,161h.06a5.13,5.13,0,0,0,4.83-3.27c0-.13.1-.25.14-.37l5.81-18.89,5.85,18.88,0,.09a5.21,5.21,0,0,0,4.87,3.56h.06a5.21,5.21,0,0,0,4.9-3.45c.08-.21,6.65-33.35,6.65-33.35a4.46,4.46,0,1,0-8.76-1.64l-3.58,18.12-5.67-18.29a4.46,4.46,0,0,0-4.27-3.52,4.53,4.53,0,0,0-4.38,3.29l-5.7,18.5-3.59-18a4.46,4.46,0,1,0-8.76,1.65s6.58,33,6.64,33.17A5.21,5.21,0,0,0,145,161Z"/><path class="cls-1" d="M99.68,176.12a4.52,4.52,0,0,0-3.74,7A3.92,3.92,0,0,0,99.36,185h.46a4.23,4.23,0,0,0,3.87-2.42A4.49,4.49,0,0,0,99.68,176.12Z"/><path class="cls-1" d="M230.51,203l-21.12-21.12,7.85-7.85a4.46,4.46,0,0,0-2.8-7.6l-15.74-1.29V104.55a10.27,10.27,0,0,0-10.27-10.27h-22a68.16,68.16,0,0,0,2.38-21.43c-1.58-34.18-28.7-62.17-62.78-65.12C65.28,4.21,31,36.24,31,76.1A68,68,0,0,0,33.4,94.28H11.46A10.27,10.27,0,0,0,1.19,104.55v76.81a5,5,0,0,0,5,5h78.4a2.29,2.29,0,0,0,1.68-.75c3.59-4,.83-8.6-3-8.6H11.89a1.36,1.36,0,0,1-1.36-1.36V105a1.36,1.36,0,0,1,1.36-1.36H188a1.38,1.38,0,0,1,1.37,1.38v59.42l-15-1.15a4.45,4.45,0,0,0-4.79,4.79l.67,9h-50.6a4,4,0,0,0-4.45,4.09c0,2.46,2,4.45,4.45,5.26h51.3l1.77,21.79a4.45,4.45,0,0,0,7.59,2.8l7.85-7.85,21.12,21.12a4.47,4.47,0,0,0,6.3,0l15-15a4.45,4.45,0,0,0,0-6.3ZM43,94.28A58,58,0,0,1,40.4,80.94H58.59a107.64,107.64,0,0,0,1.29,13.34ZM58.83,71.59H40.13a59.18,59.18,0,0,1,7.56-24.9,101.54,101.54,0,0,0,13.82,4.25A109.76,109.76,0,0,0,58.83,71.59Zm-6-32.75A59.93,59.93,0,0,1,74.21,21.78,60.89,60.89,0,0,0,70,28.2a78.25,78.25,0,0,0-6.09,13.89A95.16,95.16,0,0,1,52.8,38.84ZM94.61,94.28H69.29a99.74,99.74,0,0,1-1.41-13.34H94.61Zm0-22.69H67.12a99.75,99.75,0,0,1,2.56-18.9,173.32,173.32,0,0,0,24.93,2.23Zm0-25.85a167.55,167.55,0,0,1-22.44-1.93c5-14.3,13.14-24.6,22.44-27.14ZM104,16.67c9.24,2.52,17.35,12.72,22.35,26.9A163.33,163.33,0,0,1,104,45.7Zm25.3,77.61H104V80.94h26.73a102,102,0,0,1-1.43,13.34ZM104,71.59V54.89a171.34,171.34,0,0,0,24.87-2.46,101.55,101.55,0,0,1,2.62,19.16ZM129.36,28.2a60.85,60.85,0,0,0-4.2-6.42A59.89,59.89,0,0,1,146.21,38.4a90.93,90.93,0,0,1-10.87,3.35A76.92,76.92,0,0,0,129.36,28.2Zm27,66.08H139.48a110.18,110.18,0,0,0,1.3-13.34H159A57.17,57.17,0,0,1,156.37,94.28ZM140.54,71.59a110.9,110.9,0,0,0-2.76-21,96.59,96.59,0,0,0,13.61-4.39,59.27,59.27,0,0,1,7.85,25.4ZM212.4,214.78l-21.12-21.13a4.47,4.47,0,0,0-6.3,0l-4.16,4.17-2-25.26,25.26,2-4.17,4.16a4.45,4.45,0,0,0,0,6.3l21.13,21.12Z"/><path class="cls-2" d="M227,6V227H6V6H227m6-6H0V233H233V0Z"/></g></g></svg>