<?xml version="1.0" encoding="utf-8"?>
<!-- Generator: Adobe Illustrator 23.0.5, SVG Export Plug-In . SVG Version: 6.00 Build 0)  -->
<svg version="1.1" id="Capa_1" xmlns="http://www.w3.org/2000/svg" xmlns:xlink="http://www.w3.org/1999/xlink" x="0px" y="0px"
	 viewBox="0 0 512 512" style="enable-background:new 0 0 512 512;" xml:space="preserve">
<style type="text/css">
	.st0{fill:#FF176C;}
</style>
<g>
	<g>
		<g>
			<path class="st0" d="M510.9,168.4l-48.1-94.8V36c0-5.5-4.5-10-10-10H59.2c-5.5,0-10,4.5-10,10v37.6L1.1,168.4
				c-0.7,1.4-1.1,3-1.1,4.5v24.6c0,29.2,21.3,53.6,49.2,58.3V466H39c-5.5,0-10,4.5-10,10s4.5,10,10,10h20.2c0,0,0.1,0,0.1,0h273.6
				h80h40H473c5.5,0,10-4.5,10-10s-4.5-10-10-10h-10.2V255.9c27.9-4.8,49.2-29.1,49.2-58.3V173C512,171.4,511.6,169.8,510.9,168.4z
				 M69.2,46h373.6v20h-68.7h-78.7h-78.7h-78.7H69.2V46z M315.1,171.9L306.4,86h60.2l26.9,88.4v23.1c0,21.6-17.6,39.2-39.2,39.2
				c-21.6,0-39.2-17.6-39.2-39.2V173C315.2,172.6,315.2,172.3,315.1,171.9z M295.2,173.5v24.1h0c0,21.6-17.6,39.2-39.2,39.2
				c-21.6,0-39.2-17.6-39.2-39.2v-24.1l8.9-87.5h60.6L295.2,173.5z M205.6,86l-8.7,85.9c0,0.3-0.1,0.7-0.1,1v24.6
				c0,21.6-17.6,39.2-39.2,39.2s-39.2-17.6-39.2-39.2v-23.1L145.3,86H205.6z M20,197.6v-22.2L65.3,86h59.1l-25.6,84
				c-0.3,0.9-0.4,1.9-0.4,2.9v24.6c0,21.6-17.6,39.2-39.2,39.2C37.6,236.8,20,219.2,20,197.6z M402.8,466h-60v-30v-40h10
				c5.5,0,10-4.5,10-10c0-5.5-4.5-10-10-10h-10v-70h60V466z M442.8,466h-20V296c0-5.5-4.5-10-10-10h-80H99.2c-5.5,0-10,4.5-10,10
				v140c0,5.5,4.5,10,10,10h223.6v20H69.2V255.9c16.3-2.8,30.3-12.2,39.2-25.5c10.6,15.9,28.7,26.3,49.2,26.3s38.6-10.5,49.2-26.3
				c10.6,15.9,28.7,26.3,49.2,26.3c20.5,0,38.6-10.5,49.2-26.3c10.6,15.9,28.7,26.3,49.2,26.3c20.5,0,38.6-10.5,49.2-26.3
				c8.9,13.2,22.9,22.7,39.2,25.5L442.8,466L442.8,466z M206.7,306h34.8l-19,19c-3.9,3.9-3.9,10.2,0,14.1c2,2,4.5,2.9,7.1,2.9
				c2.6,0,5.1-1,7.1-2.9l33.2-33.2h52.9v120H109.2v-22.5L206.7,306z M109.2,375.2V306h69.2L109.2,375.2z M492,197.6
				c0,21.6-17.6,39.2-39.2,39.2c-21.6,0-39.2-17.6-39.2-39.2V173c0-1-0.1-2-0.4-2.9l-25.6-84h59.1l45.3,89.3V197.6z"/>
			<path class="st0" d="M209.1,362.6c2.6,0,5.1-1,7.1-2.9l0.2-0.2c3.9-3.9,3.9-10.2,0-14.1c-3.9-3.9-10.2-3.9-14.1,0l-0.2,0.2
				c-3.9,3.9-3.9,10.2,0,14.1C204,361.6,206.6,362.6,209.1,362.6z"/>
			<path class="st0" d="M10.2,466H10c-5.5,0-10,4.5-10,10s4.5,10,10,10h0.2c5.5,0,10-4.5,10-10S15.8,466,10.2,466z"/>
			<path class="st0" d="M502,466h-0.2c-5.5,0-10,4.5-10,10s4.5,10,10,10h0.2c5.5,0,10-4.5,10-10S507.5,466,502,466z"/>
		</g>
	</g>
</g>
</svg>
