<svg xmlns="http://www.w3.org/2000/svg" viewBox="0 0 176.28 212.82"><defs><style>.cls-1{fill:#5855ff;}</style></defs><title>Recurso 31</title><g id="Capa_2" data-name="Capa 2"><g id="Capa_1-2" data-name="Capa 1"><path class="cls-1" d="M175.8,33.25c-36.31,0-64.13-10.37-87.65-33.25C64.62,22.88,36.79,33.25.48,33.25c0,59.58-12.33,144.92,87.67,179.57C188.13,178.17,175.8,92.83,175.8,33.25ZM20.49,52.31c21.87-2.27,40.91-8.56,58-19.13v66.7h-57C19.91,83.92,20.2,67.56,20.49,52.31ZM126.66,168.23a107.41,107.41,0,0,1-28.19,19.11V119.88h53.95a113.74,113.74,0,0,1-4.4,15.19A86.57,86.57,0,0,1,126.66,168.23Z"/></g></g></svg>